<svg height="973.24713" width="1035.8043" xmlns="http://www.w3.org/2000/svg">
    <g transform="translate(123.61644 -54.31007)">
        <path d="m523.92638 294.67296 142.89198-4.32534 75.86658-1.48177 5.45278 71.8798 6.16707-.97734 11.88134 152.59409-9.90435 13.12981-1.03805 63.29305-48.89518 1.68592-2.43322-66.27102-177.63688-144.19906z" fill="#b3bbcf" fill-rule="evenodd"/>
        <path d="m532.78544 473.41651 9.47266-.33202" fill="none" stroke="#fa7f70" stroke-linecap="round" stroke-linejoin="round" stroke-width="2.5"/>
        <path d="m763.81984 462.89196 48.219-3.84981 32.26869-23.55462 63.83022.88658-30.71428 21.39161-3.81073 22.0424-5.74572 10.26157-5.73165 9.64217-5.62787 9.08133-7.05145 9.18039-9.34847 10.16671-9.38406 6.07492-7.6172 6.35603-9.28922 6.35113-12.03333 6.14328-11.6357 3.70676-29.0486 4.23263" fill="#b5fdb5"/>
        <path d="m770.34401 308.63834 15.71364 2.64927 14.08126 5.43805 12.08287 5.74568 8.11392 4.72378 10.26157 7.87946 8.81904 6.54087 8.00993 8.87766 6.90707 6.80803 7.35073 7.58162 5.6006 10.5092 2.82923 13.80511 13.3056 22.77762 25.88103 15.44714-41.81704 2.46859-57.44803-31.25771-49.88106 1.35039-4.16075-61.55649-1.15809-29.49927" fill="#b5fdb5"/>
        <path d="m874.79211 347.45764 60.60915-3.28301 9.59645 6.12405 46.97209-1.45209 15.1523 17.80394 2.5254 23.2335-21.02383 13.51079-38.70147 1.89404-8.71257 8.83884-66.9226 1.51523z" fill="#b3bbcf" fill-rule="evenodd" transform="translate(-123.61644 54.31007)"/>
        <path d="m593.34361 313.08134c3.453-6.91443 3.23892 14.0475 4.13508 25.52382.89615 11.47633 9.8249 16.12689 10.40636 16.71687.58145.58997 15.31065 5.0946 42.16683 3.62805 26.85617-1.46655 49.29199-2.176 49.85739-1.57656.56539.59947 1.40172 8.65013 1.85845 17.89037l.83046 16.80043-10.26665 12.92343c-5.64657 7.10788-10.26754 13.79574-10.2687 14.86193-.00126 1.06619.57012 11.24339 1.26964 22.61597l1.27178 20.67747 11.32242 10.98491 11.32229 10.98491.82893 16.80042c.75694 15.34237.60054 17.27714-1.80204 22.29291-2.23381 4.66355-3.25111 5.52512-6.74067 5.70892-6.1917.32615-10.29937.61861-12.07033.85939-1.17652.15997-1.59213 4.39347-1.59213 16.2164v15.99991l-18.31436 13.69688-18.31434 13.69689-15.30236 1.80382c-8.41632.99209-15.95661 2.2141-16.75625 2.71551-.98794.61954-1.21479 3.88093-.70784 10.17738.41029 5.09615.23654 10.01953-.3861 10.94083-.74834 1.10731-12.10354 2.97326-33.4999 5.50489-17.8023 2.10636-34.26379 4.14761-36.5811 4.53611-3.73675.62647-6.26655 3.5119-22.36689 25.51133-9.98448 13.64268-18.76398 25.9118-19.51003 27.26475-.98848 1.79234-.85853 4.59724.479 10.33873 1.00949 4.33335 10.93514 52.94944 22.057 108.0355 15.9906 79.20077 20.77005 105.26587 22.84315 124.57657 3.62203 33.7389 3.74987 32.17724-3.02109 36.90397l-5.64271 3.9392-19.51286-.0636c-10.73205-.03502-46.73814-.85179-80.01352-1.81495-48.02338-1.3903-56.02427.43705-61.07936-1.18857-10.7823 2.42559-.73405 2.71172-6.89736 3.23045.3412 4.35262-6.15521 3.53728-7.80492 4.17958-3.28638 1.27967-56.47801 13.74986-58.64959 13.74986-1.05449 0-3.47937-2.68717-5.38859-5.9714-1.90922-3.2842-4.18927-6.73361-5.06678-7.66512-1.53579-1.63042-54.76944-23.45899-78.8802-32.34486l-11.69593-4.31061-16.9623 1.94963c-9.32926 1.07225-23.2671 3.2284-30.97299 4.79148l-14.01068 2.84212-4.14101 12.27724c-6.64571 19.70304-8.09304 23.26215-9.45999 23.26215-.70958 0-13.12849-11.4349-27.59758-25.41091-28.617261-27.64191-28.049013-26.92711-81.110927-102.03879-33.234524-47.04498-60.19752-100.15764-84.83483-167.11061-19.698276-53.5309-28.723311-85.89474-38.046723-136.43569l-7.86724-42.64729-1.65315-40.06259-1.65314-40.06258 5.63361-43.93961 5.63362-43.93963 26.872989-64.92521c14.780141-35.70886 27.617561-65.55218 28.527607-66.31851 1.215377-1.02343 6.597773.0116 20.275108 3.89894 23.2791273 6.61632 37.340434 8.08138 62.212602 6.48194 23.842127-1.53319 46.422604-7.30823 67.351694-17.22541 7.91087-3.74853 18.39553-8.4908 23.29926-10.53842 4.90375-2.0476 13.83559-7.13041 19.84852-11.29514 9.63754-6.67522 12.12709-9.28191 21.01603-22.00507 5.54587-7.93807 13.86858-21.13787 18.49489-29.33288l8.41146-14.90003 24.97459-18.738951c15.29476-11.475951 31.28772-22.204541 41.26282-27.680374l16.28816-8.9414 10.16826.290596c6.41339.183293 10.88165.93974 12.10015 2.048491 1.06253.966839 3.42664 1.95194 5.25356 2.18911 2.41321.313277 31.50026 28.320175 106.35385 102.404508 56.6677 56.08531 103.68533 103.19115 104.4836 104.67967 1.7915 3.34045 17.36653 47.72183 10.33899 51.05775 1.78571 5.67983 5.47133 24.5575 6.59337 24.0216 6.35602-3.03571 4.90018-2.49974 3.80036-7.03608-.02839-2.75063-1.12932-9.50214-1.92067-13.18427 2.45849-.27631 14.24488-2.93629 22.58829-5.25604l-1.35654-7.26692c.77543-5.89536 2.57634-7.91479 7.0875-7.9475 3.03469-.02201 2.84722 6.54258 4.27579 12.07478 8.21429.80438 13.67968 1.45937 19.16556 2.67769z" fill="#b5fdb5"/>
        <path d="m669.61651 121.90285-144.32619-27.40235-66.37695-14.00879-49.32617-9.13086-54.19923-6.08886-46.27928-4.26758 207.80761 205.47363 8.98437 48.15918 64.85352-23.13477 5.78613 72.76856 85.25389-5.78614-3.9599-77.6416 65.1611-1.52343 1.2158-20.40039 54.1992-102.91504-35.1416-16.05957-49.6338-11.26954-38.4668-5.9375z" fill="#b5fdb5"/>
        <path d="m591.79429 312.81225 5.13159 55.22365c-15.16422 1.16436-61.34191 3.74645-62.02184 4.42843-.67994.68199.00364 20.95339.20952 27.58722.29997 9.66507 1.56118 9.85506 3.64006 9.87441 4.89752.04558 106.28259-3.52888 108.97817-6.00906 2.16043-1.9878 4.74931-7.7928 6.93175-13.75523 1.50046-4.09924 2.22098-7.91998 9.36593-7.91998 6.02326 0 6.17501.69668 6.11057 13.03616-.04481 8.58165-.64436 7.99666-4.20036 12.59891-1.95864 2.53493-5.70932 2.7223-18.1576 3.60657-23.9196 1.23287-19.4365.87163-80.95248 5.0421-20.61409-.35265-43.79562 5.17889-50.20497 5.62561l-11.65339.81225-12.77015-7.88935c-16.41524-10.14127-48.81652-21.20592-84.11806-28.72533-33.75087-7.18908-56.11033-13.41328-78.19135-21.76609-16.92793-6.4035-20.06682-7.17211-32.46031-7.94833-13.37492-.83769-13.93462-.99942-22.23785-6.42551-7.15769-4.6775-9.16575-5.42341-12.57701-4.67191-4.41754.97318-4.53301 2.13164-1.06567 10.69261 1.65041 4.07492 1.54536 4.39317-2.93295 8.88498l-4.64467 4.65869-19.87652-4.61666c-22.37043-5.19592-53.23915-10.44897-73.51192-12.50979-7.46372-.75872-25.20218-3.52551-39.41879-6.14843l-25.848377-4.76893c-13.278081-14.51491-28.740881-27.83421-39.569492-44.45402-1.595207-2.98966-1.412355-3.50759 2.46529-6.98272 3.992373-3.57795 4.776794-3.7578 16.768995-3.84465 6.91938-.05011 13.587642-.49144 14.818361-.98073 1.230706-.4893 5.59262-5.62731 9.693143-11.41781 7.79439-11.0068 27.92508-38.01744 36.52696-49.01056 2.75718-3.52367 12.2623-21.60732 21.12251-40.18589 8.86019-18.57859 20.67438-41.62084 26.25376-51.20504 11.6803-20.06427 6.03694-15.42527 63.07037-51.845437l30.95493-19.767064 5.87902 1.283486c20.7732 4.53512 18.15429 2.883623 42.54253 26.827414 12.34581 12.120801 28.29292 27.624971 35.43803 34.453721 27.03574 26.78665 73.46309 72.17013 113.45151 111.40203l-4.94774 4.08875 5.89437 9.13963c-4.68531 3.35435-12.06095 8.91316-17.85573 11.70435-.37405 9.03055-3.26164 14.65593 1.87949 19.81257 2.55254 2.56024 3.91016 2.41779 7.43141 2.34857 6.25873-.12304 12.23285-.14948 25.06526-.16007-.62004 22.54924-.30173 31.79657-.20239 54.90135.61593 2.46146 1.63653 3.14725 4.68376 3.14725 3.08828 0 5.117 2.88619 5.5134 7.07061.40731 4.29955 4.7386 2.5959 5.93459 3.23791 1.78244.9568 15.2112 1.85564 21.76359 1.45671 1.10991-.06757 1.61552-2.63788 1.61552-8.21261 0-6.61249 3.67598-5.54631 5.7089-6.81972 1.37204-.85944-2.17173-15.67591-2.09205-17.67302.08748-2.19267 18.5164-4.82489 21.54464-5.68633 3.02825-.86143-.77275-7.45209.21202-10.77595 2.56346-.62746 4.96963-1.95233 8.56956-2.60369.02852 2.92007.74355 7.74585 1.26013 10.25906" fill="#50b958"/>
        <path d="m695.60397 532.58825c-1.29069-.05629-7.71466 3.44785-9.08958 4.18591-2.25651 1.21129-2.49988 2.84339-2.49988 16.76536v15.42343l-5.49278 4.4302c-3.02103 2.4366-10.88893 8.36787-17.48421 13.18059l-11.99142 8.7504-14.18632 1.85797c-20.60939 2.69917-19.75371 2.12722-21.28211 14.22523l-1.29242 10.23011-21.97112 2.81738c-12.08412 1.54957-27.78701 3.48727-34.89532 4.30599-9.73215 1.12095-13.60872 2.13006-15.69578 4.08579-7.94458 8.88538-.49523-.39025-20.56349 26.35926-9.61597 12.63137-18.357 24.30317-19.42451 25.93732-1.77484 2.71693-1.43538 5.37838 3.96678 31.09946 6.83715 31.73882 13.51256 63.51007 20.08441 95.30555 9.41176 48.9235 10.98374 54.8075 16.17269 78.43722 1.81174 7.83564 8.3516 61.56581 8.3516 68.61505 0 2.04518-1.64724 4.0696-5.26564 6.47137l-5.26564 3.49515-80.35713-1.95731-80.35712-1.9573-10.33936-3.4854c-5.68664-1.91697-11.35356-4.36867-12.59315-5.44825-4.80838-4.18765-31.23043-39.80932-32.80436-44.22618-2.39878-6.73157-2.3133-34.98999.1248-41.25967 1.04532-2.68809 3.96914-12.85187 6.4974-22.58619 3.4665-13.34678 4.38593-19.02153 3.73916-23.07839-.74835-4.69406-.41703-5.84096 2.59969-8.99924l3.45734-3.61957-1.55097-11.68423c-.85303-6.42632-1.2057-12.5867-.7837-13.68975.42202-1.10304 2.55619-2.39963 4.74263-2.88131 4.73971-1.04414 6.53867-3.95579 6.53867-10.58294 0-2.69669.91712-7.31178 2.03807-10.25576l2.03805-5.3527-6.71802-10.61343c-6.40666-10.12153-6.69066-10.94439-6.12766-17.75407.67432-8.15594 3.88226-13.39307 9.3167-15.21001 3.18158-1.06374 4.14009-.68043 7.89989 3.15906 3.44486 3.51789 6.16016 9.67625 13.92947 31.59237 15.97766 45.07076 17.6409 50.94234 16.34081 57.6862-3.15833 16.38287-.70316 20.25789 15.13269 23.88407 10.32506 2.36428 10.71751 2.36344 18.09386-.03905 6.64725-2.16501 7.59011-2.89634 7.96393-6.17726.73408-6.44288-.77147-9.29654-11.95236-22.65471-14.51342-16.90874-25.00133-36.71719-36.56682-55.66275-10.15271-16.6024-19.68646-32.64435-21.1861-35.64877-1.49966-3.00442-4.36299-7.21261-6.36298-9.35153-5.48694-5.86812-18.05614-23.89697-18.05614-25.89914 0-3.51739 1.68322-5.99679 5.36893-7.9085l3.76326-1.95193-.85921-24.2506c-.83439-23.5501-.98495-24.56677-5.2123-35.19712-3.61784-9.09761-4.3531-12.62882-4.3531-20.90645 0-6.43977.57098-10.39992 1.61552-11.20485 2.84052-2.18892 37.72132-17.25585 39.90716-17.23809 1.15715.00941 4.1918.89211 6.74369 1.96158 7.66371 3.21176 9.38043 2.60876 13.37208-4.697 3.30022-6.04025 4.5912-7.08977 14.26099-11.5936l10.63227-4.95213-.29291-4.88669c-.29194-4.87012-.27285-4.88967 5.63391-5.76881 4.48726-.66785 8.78236-2.97639 17.6831-9.50437l11.75625-8.62224 7.98408 2.07512c4.39124 1.14132 9.5196 1.89672 11.39633 1.67868 3.23362-.3757 3.43241-.82059 3.79704-8.49845.45122-9.50115 1.63502-9.08058-17.51784-6.22357-6.92592 1.03313-23.35197 2.81422-36.50233 3.95798-13.15037 1.14379-25.15128 2.33443-26.66871 2.64591-1.51742.31146-8.35911 4.70701-15.20375 9.76788l-12.4448 9.20157-20.98399-.88813c-19.23805-.81423-22.43567-.61364-38.43164 2.41094-9.59621 1.81449-21.80957 4.85906-27.1408 6.76573-5.33123 1.90666-13.76426 4.92877-18.74007 6.71577l-37.89656 3.29869-15.57087-7.9697c-8.56397-4.38335-16.18015-7.96972-16.92483-7.96972-.74467 0-4.0026 4.14464-7.23984 9.21031-6.51524 10.19511-4.89508 9.72675-19.80596 5.72549-9.36922-2.51417-29.97522-2.38481-32.55412.20438-1.17007 1.17474 1.69624 7.42983 7.80183 12.57033 0 0 31.32749-8.75271 32.18174-1.10134 1.48715 13.32026-26.41913 14.18585-26.41913 14.18585-2.74481 4.2665-20.14865 15.24786-21.2149 15.67287-1.06624.42501-16.76914 4.53703-34.895313 9.13782-18.126178 4.60081-37.318602 9.48658-42.64983 10.85728-5.331229 1.3707-22.756942 7.76935-38.7237976 14.21921-10.3044256 1.61298-24.0368524 9.93123-35.0560534 7.68034l-2.872803-4.04667 11.692193-36.4633c11.2900433-35.20918 11.7173817-36.98326 12.4244512-51.58086.5436949-11.22469.3183875-15.46207-.8749418-16.45544-1.1099425-.92395-16.3485464-.53871-49.2540554 1.24518-34.139941 1.85079-48.04286 2.18585-49.04375 1.18195-.76828-.7706-1.61428-5.71936-1.88-10.99724l-.48312-14.59614c15.936278-1.43939 32.934555-1.69172 50.032143-2.7078 22.746572-1.13463 49.9217903-3.32287 60.389364-3.98975l17.603386-1.2125 14.27053-.43604c8.824573 4.03363 8.785615 11.08769 21.395296 11.81133 13.348543.76606 14.709913-3.8974 21.134141.22453 6.389629 4.09973 7.377839 9.34774 14.228267 8.57085 12.483743-1.41574 15.421083.70103 20.947463-6.80232 2.80335-3.80621 5.68656-7.28585 6.40713-7.73253.72056-.44667 4.40666.1669 8.19133 1.36352 6.63685 2.09839 11.05486 1.93571 124.40631-4.58074 64.63879-3.71601 137.58989-7.83622 162.11354-9.156 27.1808-1.93952 52.61082-3.14114 77.2696-4.31128 14.81003-1.40302 16.7598-1.06378 29.75205 5.17652l12.52712 6.0169 27.1408-1.4685c68.3402-3.69764 108.39175-5.47467 109.94202-4.87798.92818.35725 1.87004 2.81056 2.09302 5.45183.22298 2.64125 1.2778 5.26068 2.34405 5.82096 1.06624.56028 7.17293 1.49437 13.5704 2.07577l11.63177 1.05707.64621 11.42099c.57103 10.09236 1.00188 11.68959 3.7036 13.73 2.75307 2.07917-.28089 3.98898-.95425 10.30221" fill="#50b958"/>
        <path d="m564.30052 543.79095 4.04062 20.18511c7.2578.59523 3.54709-.15325 8.64141.27047l2.71665-22.05746z" fill="#b5fdb5" fill-rule="evenodd"/>
        <path d="m530.25549 304.71152c-.82281-.51005-3.09161-9.09054-5.04179-19.06774l-3.54579-18.14038-10.60181-13.00533c-6.45011-7.91241-24.64125-26.13883-46.45308-46.54316-19.71821-18.44582-41.37637-38.85826-48.12926-45.36098-6.75289-6.50273-33.21517-31.49314-58.80507-55.53425-25.5899-24.04109-46.52709-44.681653-46.52709-45.867902 0-1.608148.98633-2.069936 3.87726-1.815274 2.13249.187849 25.68683 2.636635 52.34297 5.441753 54.99938 9.787676 147.95794 14.42155 186.85868 35.655973 1.02741 1.38469.21046 9.28462-3.0907 29.88736l-4.48726 28.00516 4.70623 4.83417c5.20937 5.35096 5.39258 6.49566 3.14442 19.64551-1.21017 7.07844-1.90785 10.28716-.02361 13.22283 2.70122 7.20376 7.39175 13.9641 8.04753 21.63236l.64621 13.74378 9.69314 3.29665c5.33123 1.81316 11.14711 4.07197 12.92419 5.01959 8.16627 5.45085 8.55756 9.52072 13.21606 11.40749.90573.71311 5.57304 2.34132 10.37182 3.61826 8.91433 2.37207 13.23123 5.19744 9.83747 6.43855-.9686.35422-7.86776.79863-15.33148.98757l-13.5704.34355-.10511 10.37055c-.05781 5.70381-.20321 11.0515-.32311 11.88378-.33308 2.31216-57.32237 21.33089-59.63042 19.90013z" fill="#50b958"/>
        <path d="m360.82336 375.46039 12.64794 2.98406c7.2578.59523 46.97494-28.77544 52.06926-28.35172l-9.19905-7.89738z" fill="#b5fdb5" fill-rule="evenodd"/>
        <path d="m505.32939 427.6548-31.30372-11.3086-45.67871-7.60741h-42.62206l-31.97266-3.04688-28.92579 12.18261h-28.92578l-24.36035-1.52832-13.09082.3125-11.26465-.3125-44.15039-38.05664-31.96777-7.6123-30.4541-3.042-51.757816-9.13574-41.10351-7.6123-22.8418 36.53808-25.87889971 25.8838-18.26661029 35.00976-18.27148 10.65918-16.74805 1.51856 4.57032-19.78516v-13.70605l16.74805-15.21973 12.17773-22.8418-12.17773-19.79004-10.65919-16.74316-16.74316-38.06641 16.74316-36.5332 16.74317-19.79004 15.22949-19.79492 21.3134803 16.74805 15.2197197 13.70116 13.70606-13.70116 27.40234 12.17773 10.65918-18.26661v-15.22949l76.118156-25.8789 9.13086-10.6543 13.70606-33.49121-28.92578 28.92578-57.851566 24.36036-30.44921 7.6123-62.4169997 1.51855-30.4541003-7.6123-45.66894 91.34277-13.70117 30.4541-3.042 62.41212 18.2666 27.40722-16.74804 25.88379.30761 13.99902 132.14355-6.3916 5.4834-6.3916 10.35157-3.96485 10.34668-.60547 10.35644-1.21581 1.51856-16.74805 16.74805-4.56543h18.266596l19.79492 21.31348 371.46485-19.48732z" fill="#50b958"/>
        <path d="m314.17216 748.23097-73.2825 32.39719 3.66824 4.6766 62.00195-18.80231 6.08399 24.36035-1.51855 21.3086 3.34961 7.61719-2.73926 44.75586-4.57032 12.17772-78.25195-113.87206-44.14551-36.8457-5.78614-8.5254-9.74608 3.95996-6.69434-2.73925-6.09375-8.21777 3.95507-14.61915-14.91698-15.83008-22.22657 2.12892-52.675776-8.52539-22.52929 3.65234-57.8515597-34.10157-13.0908303-8.52051 12.9658027-6.71563 25.7011873-9.12421 12.17774 3.04688 27.40235-10.6543 41.41112-7.00195 4.262696-6.09375 10.6543 5.47851 19.18456-.84821 11.94685 8.9202 13.93207-.4548-5.1709 10.04395-7.91993 3.95996-2.43652 10.65918 26.49413 5.78125 24.96095 7.91992 16.4453 7.00195 32.2754 16.13281 25.57618-4.86816 7.6123 5.18066 3.95507-7.30957 5.4834-4.26269 7.91993-2.43652 5.47851 5.47851 9.43848 3.65235 10.35156 19.18456z" fill="#50b958"/>
        <path d="m-86.833696 588.38234 17.3584 3.04198 33.49121 44.15528 19.79004 18.26172 21.3134703 51.45997 36.5380897 61.20116 114.184556 63.94044 4.56055 16.74803-47.19237 36.53809 1.52344 10.65919 9.13573 25.87407-6.08886 19.79488-38.061516-65.46876-42.62697-36.52832-41.1035097-70.03906-33.4960903-71.54785-30.44433-43.54492z" fill="#50b958"/>
        <path d="m378.73759 952.59127-12.1875-3.39837v8.52537l8.96972 18.63288 7.01173 25.40525 2.30468 18.1054 141.41602.0489 23.70117-59.95336-12.9541-2.24882z" fill="#b5fdb5"/>
        <path d="m242.31181 558.8462 2.73925-4.26269 11.26954-.91309 9.43359-2.73926 14.92187-2.1289 14.31153-.30762 9.7461 3.34473 5.47851 5.79102 7.00195 5.17577-2.13379 7.61231-1.21582 12.18262 1.52343 7.91016-.91307 2.13379-20.09766 4.86816-15.52734-7.60743-14.61915-9.43847-12.78809-12.48535z" fill="#50b958"/>
        <path d="m670.91531 431.55129-.1904-10.9668-1.9336.08788-.1416-8.4375 10.0244-.2002-.1367-4.80956 5.9912-.09277-.1074-6.76758 9.624-.45899.5078 13.80372-4.2334.13183.3418 10.14648-8.7842.07812.8594 31.91895 9.2139-.19042.4492 12.07031 4.6045-.21972.5566 13.52538-11.3769.58594-.1514-7.02149-5.5664.47852-.1221-5.12695-10.3369.31738-.166-10.63477 1.8799-.21484-.4004-12.09961-4.7998.13672-.4297-15.65918z" fill="#c99"/>
        <path d="m596.42314 421.21925 60.59077-2.73925.9131 17.35839-51.14744 3.042-1.52342-3.95997-3.95996-2.73437-3.65724-2.13379z" fill="#b5fdb5"/>
        <path d="m744.37721 407.12257-35.6006 1.61622-5.1757 5.17577.415 13.01758 5.7959 7.03613 26.6699-.87402.6104-3.34473 1.2207-3.66211 1.8261-3.03711 2.7393-2.13379 1.8262-.61035z" fill="#b5fdb5"/>
        <path d="m607.38505 448.01612 50.54196-2.1289.9131 16.44043-59.98045 1.82617-.60547-7.00195 3.95508-1.21582 3.95508-3.66211z" fill="#b5fdb5"/>
        <path d="m736.78931 441.92726-26.582 1.49903-5.4834 5.83496.4004 12.45116 6.0889 5.18555 36.2158-1.53809.0195-11.25487-2.7441-1.83106-2.1289-1.82129-2.1289-2.13379-2.1338-3.34961z" fill="#b5fdb5"/>
        <path d="m756.31471 545.74074-.9228-23.78907-57.0703 1.99708 1.8701 38.59862 7.1533-.39062-1.5967-30.90333 42.959-1.7041 1.1133 30.33693 6.9726-.37599z" fill="#c99"/>
        <path d="m556.54032 110.57472 19.47754 3.49609-.29785 2.97364 14.0039 2.66601.28809-3.04199 19.66797 3.65234-1.98731 20.54688-8.99901-1.74317.77147-10.5127-5.17577-.85448-.30274 1.61132-7.72949-1.35254-1.16211 11.05958-8.84277-1.90919.88378-10.74706-6.59667-1.15723.01952-1.44043-6.86522-1.13769-.94728 9.46777-8.80371-1.70898z" fill="#c99"/>
        <path d="m542.83427 424.56886 46.28418-2.73926v9.14062l-4.26758 1.82129-3.65235 3.95509-1.21582 4.26757-35.625.61035z" fill="#b5fdb5"/>
        <path d="m757.93091 590.24269-.8886-24.04785-6.9727.39551.6006 16.26465-42.1484 2.1582-.8252-16.02051-7.1729.40527 1.1377 23.5498z" fill="#c99"/>
        <path d="m544.66044 451.36574 35.32226-1.52833 1.82617 2.43653 3.042 2.44141 4.87304 2.43652.61036 7.30957-45.06348 2.43163z" fill="#b5fdb5"/>
        <path d="m710.90561 475.41847 38.0615-1.51856-18.5742 30.75196z" fill="#b5fdb5"/>
        <path d="m705.42701 400.51612 15.835-29.53612 23.1396 27.71484z" fill="#b5fdb5"/>
        <path d="m733.13211 508.44581 21.9238-34.85351 1.8262 33.79882z" fill="#b5fdb5"/>
        <path d="m757.04231 566.19484-56.5186 3.20312-.332-6.85059 56.6015-3.03711z" fill="#c99"/>
        <path d="m725.17311 366.69289 22.5293-.61035 2.7881 31.3916z" fill="#b5fdb5"/>
        <path d="m705.5356 482.81689 20.88751 25.9219-17.6465.78125" fill="#b5fdb5"/>
        <path d="m608.31766 378.62647-.36132 6.0791 36.13767-2.37792.2295-6.29395z" fill="#c99"/>
        <path d="m700.55891 367.63526 17.39348-1.96229-17.39021 30.98846z" fill="#b5fdb5"/>
        <path d="m565.58329 381.70265-.4541 5.81542 36.65038-2.40722.30763-6.03515z" fill="#c99"/>
        <path d="m697.56081 481.17042 7.0069-.31738.7861 26.02538-6.5576.15138z" fill="#c99"/>
        <path d="m693.25421 373.56789 5.4834-.17579 1.2207 26.35742-5.9131.15625z" fill="#c99"/>
        <path d="m541.179 383.46046-.47853 5.66406 21.9043-1.44042.45899-5.7959z" fill="#c99"/>
        <path d="m566.16435 196.11182 5.59081.90822 2.5879.4541-.61524 7.23143-.47363 5.58594-10.04883-2.04589.38574-3.05665h2.11426z" fill="#c99"/>
        <path d="m326.55985 644.32472 5.13184.083.08788 6.1084h-5.21972z" fill="#c99"/>
        <path d="m83.787914 331.20377-15.570221 22.53989" fill="none" stroke="#e0e032" stroke-width="5"/>
        <path d="m569.60185 544.08057 4.44335.05372.06836 5.09766 1.17676 1.875v2.88085l-1.12792 2.0459.02929 4.38965-4.45313.04882z" fill="#c99"/>
        <path d="m303.5374 340.23292-2.64161 3.01758 3.12988 2.77832 2.70997-2.91503z" fill="#c99"/>
        <path d="m68.698524 469.29054-.5127-9.90234 8.02735-.30763 1.25489 26.78712-7.83204.33203-.50781-9.84863s-2.278604 6.27003-4.762829 8.02246c-1.617833 1.14126-5.725285 2.13849-7.702981 2.0459-3.375806-.15804-7.981396-2.05421-10.33693-4.47754-1.669201-1.71724-2.89599-5.01826-2.96386-7.41211-.080658-2.84491 1.113058-6.87923 3.01758-8.99414 2.145449-2.38245 5.46941-4.03691 8.650251-4.43849 2.474456-.3124 7.173817.80469 9.255019 2.17914 2.01449 1.3304 4.41406 6.01423 4.41406 6.01423z" fill="#7183de"/>
        <path d="m105.0413 448.99757-17.734376 1.30372.5957 10.48338 1.28907 22.68555.56152 9.94629 18.178706-1.08886 6.64063-7.7832-.48828-14.58008-.46387-13.8379z" fill="#7183de"/>
        <path d="m151.64286 583.88526 3.40333 8.89649 1.52343 8.22266 3.3496 4.87304.60548 6.69434-7.30469 10.65918-9.7461 7.30469.61036 4.57031 27.40234 4.56543 15.53223 6.3916 21.61621 6.40137 12.17774 8.5205 19.4873 9.43848 30.75195-5.47363 19.79003-8.53516 13.70607-13.69629 9.74121-12.18261 24.98535-7.36816 8.50586-2.37305v-3.95508l-4.2627-.91797-4.56542 2.13379-7.30469-16.44043-4.87794-19.49219-11.25976 12.18262-20.74219 4.8584-16.78711-7.83204-17.6709-10.8789-16.97754-18.05664-13.38866-15.59082-15.86426-8.68164-12.37305-9.53614-7.37793.21485 11.25976 10.3955-2.73926 6.08888-3.3496 3.34961-3.65724.30272-4.56053-.61522-3.65723-3.9502-6.08887 1.21582-4.3457-4.87793-3.56934-6.08399-3.04688 7.91016-5.17577-2.12402-5.17579-4.2627-7.91992 3.65235-2.1289 6.69921.91308 8.21777 11.875-5.47851 5.4834 5.47851-5.78613 8.83302-1.82618 6.39648h-5.78612l-2.74415 4.86817z" fill="#7183de"/>
        <path d="m356.02762 374.5298-11.38671-2.63673-3.21289-5.2539-5.83496-4.375-3.2129-5.83985-3.208 4.08693-9.05274 2.63182-5.2539-.58593-3.74512-3.67188-28.00781.97169-8.52539-8.52051-5.60059-2.19239.72754 5.1172 5.11719 7.06054.48828 5.35645-5.11718 6.08886-4.86817 9.01367.23925 7.30469 3.16895 7.55371 5.11719 3.8916 4.86816 5.84473 2.9248 5.60547 6.81642.4834 15.10253.73242 7.54883-2.43164 9.74121-.73243 8.52539.48829 5.84472-.72754 7.30958-5.60547 6.08399-8.76953 3.4082-9.0088z" fill="#7183de"/>
        <path d="m508.51297 449.31495 2.1338 6.53809 8.29589 7.23633 8.83301.14648 5.10254 3.27149 1.36231 5.49316 3.02734.01465 2.63671-.00976-2.82226-49.03322-3.5791.06837-2.20215.11231.28321 5.68847-2.05567 3.64747-1.83594.98632-4.56542.61035-7.91504 2.13379-5.17579 8.22266z" fill="#7183de"/>
        <path d="m588.5081 437.66456 4.26269-1.52344h3.65235l3.04198 1.82618 2.44142 3.04687.60546 3.95508-1.82618 4.2627-2.43163 2.13379-4.87793.9082-3.65235-.60547-3.65234-2.43652-.61035-3.34473v-3.3545z" fill="#7183de"/>
        <path d="m751.73071 446.50734-4.2285-3.41309-.0488-7.72461.1318-6.54785 3.7793-2.49512 6.9629.10254 6.0987 5.67871 4.2675.61035 1.8262-4.57031-2.8955-5.62989-7.3047-4.98046-7.8906-1.15235-.3223-9.61425 1.6455-.07812 45.2344-2.05567.6348 11.25977 8.9013 8.79393.7422 19.16993-7.5732 8.65235.6445 10.50292-44.3506 1.89454-2.0703.083-.4931-9.03809 5.5029-1.1621 6.0937-2.44141 3.6524-7.60742-1.2207-3.04688-5.1758.30274-3.042 3.05176-3.6426 1.47949z" fill="#7183de"/>
        <path d="m807.81961 406.38039h4.8682l10.0537 5.17577 34.7021-.91309v1.83107l6.3965 1.82128 3.9649 3.04688 1.2109 6.08886.2295 5.542.6836 6.03026v5.17579l-2.7393 4.87305-6.3916 3.34473.9131 3.95507-35.3223 2.13868-10.3515 7.30468h-6.0889l-.2539-6.67968 7.2559-7.63184-.2002-5.77149 6.5967.28809 4.2627-7.30958v-3.64745l-4.5655-5.79102-6.8701.01465-.1367-3.96973-7.9297-7.38281z" fill="#7183de"/>
        <path d="m76.305954 461.32667 11.59667-.542" fill="none" stroke="#b3cfcf" stroke-width="2.5"/>
        <path d="m77.380164 484.01222 11.81153-.542" fill="none" stroke="#b3cfcf" stroke-width="2.5"/>
        <path d="m114.08427 469.96437 394.4287-20.64942" fill="none" stroke="#7183de" stroke-linecap="round" stroke-linejoin="round" stroke-width="8.75"/>
        <path d="m339.2747 623.1675 4.07226 1.12792 195.97656-19.34221-.19531-83.17732-1.86035-49.76074" fill="none" stroke="#7183de" stroke-linecap="round" stroke-linejoin="round" stroke-width="5"/>
        <path d="m24.474201 476.15857s15.505392 21.53375 24.421731 33.28264c1.03132 13.86758.403182 38.48214.403182 38.48214l4.84864 14.52637 8.77929 16.34278 5.2295 12.03125 8.47656 6.80664 9.92187 5.67871 9.08692 5.90331 8.779296 5.44434 12.7246 6.81641 12.417 5.44921 13.91112 3.61329" fill="none" stroke="#7183de" stroke-linecap="round" stroke-linejoin="round" stroke-width="5"/>
        <path d="m762.25686 520.53989 4.41688 111.26676" fill="none" stroke="#999" stroke-linecap="round" stroke-linejoin="round" stroke-width="13.75"/>
        <path d="m867.75131 454.54654-.8692 10.7652-1.9189 8.65653-8.9405 17.61719-14.3652 20.32715-19.0869 16.87011-13.5547 8.42774-11.7578 5.87403-7.9395 3.4668-9.5752 3.16406-5.8935.29785-6.42644.10952-1.50326-34.13785-1.4111-45.18066 44.7021-1.5332 7.8125-.83985 4.7803-3.73046 3.081-3.59375s30.93108-1.7963 35.71993-2.74484c4.78885-.94855 13.08489-10.17402 17.57475-12.02492 4.7126-1.94271 27.78591-1.79065 27.78591-1.79065" fill="none" stroke="#999" stroke-linecap="round" stroke-linejoin="round" stroke-width="7"/>
        <path d="m762.19674 514.78509 4.70636 117.16799" fill="none" stroke="#fff" stroke-linecap="round" stroke-linejoin="round" stroke-width="11.75"/>
        <path d="m539.12821 521.77589 13.62305-.75684 29.49219-1.64063 31.00586-1.71386 39.2871-2.18261 56.4356-3.12989 50.7177-2.81739-1.7041-44.62401" fill="none" stroke="#7183de" stroke-linecap="round" stroke-linejoin="round" stroke-width="5"/>
        <path d="m979.34287 329.27488-21.71822 10.10153-72.22595 1.76776" fill="none" stroke="#7183de" stroke-width="2" transform="translate(-123.61644 54.31007)"/>
        <path d="m758.92388 349.90308 70.32153 27.63453 18.8672-8.36914 1.04785-.7358-19.1929 10.10152z" fill="none" stroke="#b3cfcf" stroke-linecap="round" stroke-linejoin="round" stroke-width="8.75"/>
        <path d="m533.50321 423.04054-1.60156-50.49317 219.95116-10.52246 1.8994 44.66798" fill="none" stroke="#7183de" stroke-linecap="round" stroke-linejoin="round" stroke-width="5"/>
        <path d="m679.73861 201.60011-60.59575-9.13574" fill="none" stroke="#999" stroke-linecap="round" stroke-linejoin="round" stroke-width="10"/>
        <path d="m675.16821 122.7378-5.0927 55.55176 10.3271 1.28419-.664 22.02636-1.0694 52.06543-.1123 21.75781-.039 8.38867" fill="none" stroke="#999" stroke-linecap="round" stroke-linejoin="round" stroke-width="10"/>
        <path d="m767.43881 224.98879-6.2891 12.39746-14.419 28.4082.1758 15.51269 1.4014 26.49415.6396 11.00097 6.24094-1.3923" fill="none" stroke="#999" stroke-linecap="round" stroke-linejoin="round" stroke-width="13.75"/>
        <path d="m848.66807 368.38933-19.45807 9.63978-70.45818-28.03174" fill="none" stroke="#7183de" stroke-width="2"/>
        <path d="m905.55614 419.17824s-23.15998 1.50405-26.81048-.52943c-3.52571-1.96397-16.28658-23.35324-16.45335-23.38659l-5.3223-17.02148-8.8721-12.94434-14.4336-13.82813-15.7275-12.58788-16.792-9.93164-17.3877-6.38184-11.5918-2.48047-9.834-2.31934-4.3506 4.28222-2.5244 6.68947 3.3545 71.54296 50.7129-1.24024 6.0498.29786 4.6143 4.4287 4.1357.18068 41.67203-1.41603" fill="none" stroke="#999" stroke-linecap="round" stroke-linejoin="round" stroke-width="7"/>
        <path d="m809.89971 151.66847-12.0117 13.94532-11.7627 23.45702-18.6865 35.91798" fill="none" stroke="#999" stroke-linecap="round" stroke-linejoin="round" stroke-width="13.75"/>
        <path d="m746.90651 281.30714-68.3886 2.50488-89.19926 2.98828-1.00099-18.75" fill="none" stroke="#999" stroke-linecap="round" stroke-linejoin="round" stroke-width="10"/>
        <path d="m679.73861 201.60011-60.59575-9.13574" fill="none" stroke="#fff" stroke-linecap="round" stroke-linejoin="round" stroke-width="7.5"/>
        <g fill="none" transform="matrix(-.04150139 .9991384 -.9991384 -.04150139 891.92266 61.415458)">
            <path d="m576.64723 501.65179 9.47266-.33202" stroke="#000" stroke-width="7.5"/>
            <path d="m576.64723 501.65178 9.47266-.33202" stroke="#fff" stroke-linecap="round" stroke-linejoin="round" stroke-width="5.625"/>
        </g>
        <path d="m531.99442 617.97706s-15.97459 5.65637-22.7832 8.1836c-6.6961 2.48547-16.91986 3.74532-22.23145 8.5205-7.01892 6.31009-8.75569 20.3877-14.31152 28.01759-4.94177 6.78659-13.73276 13.97326-19.80956 19.76562-3.68535 3.51285-8.16479 8.83694-12.54884 11.42578-4.54643 2.68473-11.59079 4.19756-16.66015 5.67382-6.64355 1.93469-15.49802 5.17512-22.41211 5.44923-10.3001.40834-24.11302-2.29193-33.92578-5.44923-5.80022-1.86625-13.46302-5.20679-18.16895-9.07715-5.05157-4.15463-9.49045-11.95736-13.3252-17.25585-3.54045-4.89185-11.28906-16.66505-11.28906-16.66505" fill="none" stroke="#fa7f70" stroke-linecap="round" stroke-linejoin="round" stroke-width="2.5"/>
        <path d="m645.37331 247.55714 1.0694 3.45703 1.958.94727 2.1093-.32227 2.0362-2.77343" fill="none" stroke="#fa7f70" stroke-linecap="round" stroke-linejoin="round" stroke-width="1.5"/>
        <path d="m648.40071 251.96144-2.5928 16.4209" fill="none" stroke="#fa7f70" stroke-linecap="round" stroke-linejoin="round" stroke-width="1.5"/>
        <path d="m656.29621 201.18019-1.3184 8.4082-1.3037 8.33496-4.2041 26.81641" fill="none" stroke="#fa7f70" stroke-linecap="round" stroke-linejoin="round" stroke-width="1.5"/>
        <path d="m337.24345 637.63039s1.47483 2.69979 1.82617 3.95996c.37409 1.34178.77727 3.24572.51758 4.61425-.42269 2.2275-2.00407 5.00751-3.53516 6.67969-1.37192 1.49834-3.73537 3.10577-5.68359 3.68163-1.6801.49661-4.12763.37101-5.83985 0-1.63244-.35372-3.58645-1.53399-5.06835-2.30467-1.96386-1.02133-6.35743-3.74513-6.35743-3.74513" fill="none" stroke="#fa7f70" stroke-linecap="round" stroke-linejoin="round" stroke-width="2.5"/>
        <path d="m298.25419 496.66359 54.37012 75.15625 13.63281 32.29003.7373 5.46388-.08301 21.04491" fill="none" stroke="#fa7f70" stroke-linecap="round" stroke-linejoin="round" stroke-width="2.5"/>
        <path d="m683.88688 440.3808-23.22057.65779" fill="none" stroke="#fa7f70" stroke-linecap="round" stroke-linejoin="round" stroke-width="2.5"/>
        <path d="m511.7161 417.19092s-9.87993 1.63818-14.07715 2.5293c-4.87625 1.03528-11.16472 3.61485-16.13769 3.95997-11.63279.8073-27.11564-2.36625-38.66699-3.95997-10.56341-1.45742-24.37507-6.72539-35.01953-6.08886-1.90225.11375-4.18024 1.91107-6.08399 1.82618-2.45739-.10958-5.16486-2.8003-7.6123-3.04688-5.08259-.51207-11.70009 3.79774-16.75293 3.04688-3.55506-.52829-7.06671-5.26227-10.6543-5.47853-2.62406-.15818-5.87184 1.85569-8.21777 3.042-3.70827 1.87523-7.60688 6.3699-11.57226 7.6123-10.29003 3.22399-25.16434.34486-35.93263.91309-4.57421.24138-15.21972 1.2207-15.21972 1.2207" fill="none" stroke="#fa7f70" stroke-linecap="round" stroke-linejoin="round" stroke-width="2.5"/>
        <path d="m432.06766 627.2837s10.14362 16.87784 16.41603 22.33887c6.22065 5.41597 17.19154 8.70277 24.18456 13.07618 5.05098 3.15887 12.97436 6.52408 16.1377 11.57226 4.28202 6.83341 2.41494 18.71844 4.57031 26.48925 2.94281 10.60981 10.49221 23.56261 13.28125 34.21388 1.95173 7.45361 1.97921 17.89943 3.63281 25.4248 1.76936 8.05217 7.2582 18.10702 7.87598 26.32812.68036 9.0539-3.70138 20.90258-4.24316 29.96583-1.02423 17.13394 1.87359 40.05024 1.21581 57.20215-.3566 9.29847-2.42095 21.58391-3.03223 30.86911-.45021 6.83866 3.92086 17.83224-.7666 22.832-7.65812 8.16833-25.96019 3.10386-37.14355 3.65237-6.56925.3222-15.35052.22498-21.92382 0-13.36086-.4573-31.98134 1.75465-44.45801-3.04687-12.26226-4.71901-24.92745-17.99512-34.42872-27.07025-8.84724-8.45043-15.65668-25.50057-26.65038-30.86918-4.90531-2.39543-13.92629 2.52087-18.17383-.90821-3.41893-2.76013-2.7724-9.87306-3.79884-14.1455-.35261-1.46771-.97285-3.41412-1.04491-4.92187-.45808-9.58419 6.45168-22.60713 3.62793-31.77735-3.72457-12.09569-19.27-22.37741-27.53418-31.96289-.59884-.69458-1.59869-1.48841-1.99707-2.31445-1.9117-3.96389-2.09995-10.05783-2.72462-14.41406-.98573-6.87416-.07755-16.44636-2.26562-23.03712-2.10519-6.34111-8.78528-12.96623-11.50879-19.06738-1.85065-4.14579-4.9372-9.96167-4.42382-14.47265.62016-5.44923 8.3221-10.41125 9.13573-15.83497.93799-6.25267-4.14459-14.24485-4.71191-20.54198-.2671-2.96475.4541-9.91212.4541-9.91212" fill="none" stroke="#fa7f70" stroke-linecap="round" stroke-linejoin="round" stroke-width="2.5"/>
        <path d="m694.47001 519.72022 13.3057-.84332" fill="none" stroke="#fa7f70" stroke-linecap="round" stroke-linejoin="round" stroke-width="2.5"/>
        <path d="m721.07161 358.27004-.21-3.27638" style="fill:none;stroke:#fff;stroke-width:7.5;stroke-linecap:round;stroke-linejoin:round;stroke-opacity:.4"/>
        <path d="m721.07161 358.27004-.21-3.27638" style="fill:none;stroke:#fa7f70;stroke-width:2.5;stroke-linecap:round;stroke-linejoin:round;stroke-dasharray:1.25 3.75"/>
        <path d="m324.76297 855.20851s-8.03043-14.3134-10.46875-20.88379c-.58591-1.5788-.54582-3.97421-1.36718-5.44433-1.30049-2.3277-4.41763-4.38469-6.20605-6.36232-2.79954-3.09572-6.27579-7.44744-8.93555-10.66406-4.64806-5.6212-10.37945-13.51945-15.37109-18.83789-3.22258-3.43357-7.77688-7.80201-11.50879-10.67382-1.9176-1.47565-5.14568-2.56127-6.81641-4.31153-4.43659-4.64777-7.78711-12.83427-10.5957-18.61327-1.30211-2.67925-2.61926-6.43839-3.75-9.19434-2.94988-7.18975-6.87439-16.77986-9.88281-23.94531-2.15009-5.12107-5.16282-11.88772-7.27052-17.02638-1.69416-4.13043-3.13594-10.02935-5.44921-13.84765-1.40166-2.31359-4.18202-4.72882-5.90821-6.81152-.88702-1.07022-2.2505-2.39146-2.87598-3.63281-1.49119-2.95944-1.49872-7.65215-2.88085-10.66407-1.85515-4.04273-8.33008-12.26562-8.33008-12.26562" fill="none" stroke="#fa7f70" stroke-linecap="round" stroke-linejoin="round" stroke-width="2.5"/>
        <path d="m185.64189 520.97022s6.37523 8.60373 6.9043 12.9834c.12795 1.0592-1.30492 2.47125-.87403 3.44727.43539.98621 2.10793 1.8852 3.16894 1.69433 1.06019-.19072 2.24725-1.62117 2.37794-2.69042.10803-.88383-.59838-2.19114-1.37208-2.63184-.86172-.49084-3.30077.18066-3.30077.18066" fill="none" stroke="#fa7f70" stroke-linecap="round" stroke-linejoin="round" stroke-width="2.5"/>
        <path d="m299.81181 786.5464-8.57422-7.15333-8.17872-6.35253-8.40331-5.22462-8.10547-5.44921-5.83008-3.06152-5.67871-2.8418-5.29785-6.24023-7.0459-7.94434-7.26563-5.21972-17.49511-14.53125-2.04102-3.74513-6.28907-5.44921-5.97656-11.57715-1.28906-5.66895-2.49511-4.2041-5.19043-6.12792-7.19239-4.08692-6.28906-4.65332-16.27441-10.44434-12.34375-9.41406-5.98633-5.22461-6.20606-4.31152-5.14649-2.60742" fill="none" stroke="#fa7f70" stroke-linecap="round" stroke-linejoin="round" stroke-width="2.5"/>
        <path d="m396.64286 1015.0962 26.19629-5.4785 23.75489 2.7441" fill="none" stroke="#fa7f70" stroke-linecap="round" stroke-linejoin="round" stroke-width="2.5"/>
        <path d="m211.64286 375.83351s-15.76057-5.53809-22.74414-5.13672c-3.86616.2222-8.47028 3.16525-12.18262 4.26758-4.77838 1.41888-11.20598 4.67917-16.13769 3.95508-3.5634-.52319-6.74721-5.96509-10.34669-6.08888-2.6542-.09128-5.32113 3.40786-7.91991 3.95509-5.54797 1.16825-13.20769-.97292-18.87696-.90821-3.84584.04389-9.1302-.2802-12.78808.90821-7.06388 2.29499-21.010746 13.0957-21.010746 13.0957" fill="none" stroke="#fa7f70" stroke-linecap="round" stroke-linejoin="round" stroke-width="2.5"/>
        <path d="m618.21428 553.60427s8.05039-34.53779 12.85714-47.49999c4.11504-11.09687 11.1127-25.3934 17.5-35.35715 3.1246-4.87415 12.14286-15 12.14286-15" fill="none" stroke="#7183de" stroke-width="3" transform="translate(-123.61644 54.31007)"/>
        <g fill="none" transform="translate(-42.142856 96.249992)">
            <path d="m576.64723 501.65179 9.47266-.33202" stroke="#000" stroke-width="7.5"/>
            <path d="m576.64723 501.65178 9.47266-.33202" stroke="#fff" stroke-linecap="round" stroke-linejoin="round" stroke-width="5.625"/>
        </g>
        <g fill="none" transform="matrix(-.04566968 .9989566 -.9989566 -.04566968 1194.8471 -42.969462)">
            <path d="m576.64723 501.65179 9.47266-.33202" stroke="#000" stroke-width="7.5"/>
            <path d="m576.64723 501.65178 9.47266-.33202" stroke="#fff" stroke-linecap="round" stroke-linejoin="round" stroke-width="5.625"/>
        </g>
        <g fill="none" transform="matrix(.69959 .7145445 -.7145445 .69959 468.00563 -224.53427)">
            <path d="m576.64723 501.65179 9.47266-.33202" stroke="#000" stroke-width="7.5"/>
            <path d="m576.64723 501.65178 9.47266-.33202" stroke="#fff" stroke-linecap="round" stroke-linejoin="round" stroke-width="5.625"/>
        </g>
        <path d="m366.99442 609.57375s61.79631-5.13318 88.33497-6.44044c28.09081-1.38371 79.28865-5.08056 96.21871-5.61936 2.39935-.07556 3.63746-1.05099 5.93113-1.75927 5.12424-1.58235 10.87192-2.2656 16.18999-2.95828 3.98174-.51862 9.35024 1.32484 13.34962.9668 5.04863-.45197 11.55276-2.60869 16.36718-4.19434 3.17867-1.04691 7.23337-2.94215 10.33692-4.19434 9.16852-3.69922 22.32236-6.84291 30.58597-12.27051 4.48466-2.94556 9.36184-8.39126 12.705-12.58789 3.05379-3.83338 6.80203-9.32773 8.6133-13.88183 1.12391-2.82587 1.78419-6.90052 2.0313-9.93164.35974-4.41257-.55204-10.31896-.5762-14.7461-.02643-4.84192.51972-11.29203.4541-16.13357-.16467-12.14903-.21871-26.81921-.21599-40.43869.00022-1.11998-5.74591.23926-5.74591.23926" fill="none" stroke="#fa7f70" stroke-linecap="round" stroke-linejoin="round" stroke-width="2.5"/>
        <g fill="none" transform="matrix(-.1860838 .9825339 -.9825339 -.1860838 739.29638 152.36082)">
            <path d="m576.64723 501.65179 9.47266-.33202" stroke="#000" stroke-width="7.5"/>
            <path d="m576.64723 501.65178 9.47266-.33202" stroke="#fff" stroke-linecap="round" stroke-linejoin="round" stroke-width="5.625"/>
        </g>
        <path d="m301.10575 58.06007 214.73632 209.87305 10.0586 40.41504 63.41798-21.54786" fill="none" stroke="#fa7f70" stroke-linecap="round" stroke-linejoin="round" stroke-width="2.5"/>
        <path d="m305.90272 290.1417c-25.93371-28.59259-19.69332-38.84468-11.01666-71.28773 3.79831-14.20233 2.61628-44.66123-4.80533-66.15006-6.07523-17.59044-5.96133-45.31632-6.06227-49.87753" fill="none" stroke="#7183de"/>
        <path d="m330.41188 365.33838s-15.44078-39.47393-17.44744-51.5406c-1.15766-6.96138 1.83344-9.75956-7.12669-23.35709" fill="none" stroke="#7183de" stroke-width="4"/>
        <path d="m288.99562 86.536276c3.93446-9.711775-1.13107-21.640223-1.94671-34.217527" fill="none" stroke="#7183de" stroke-width="2"/>
        <path d="m24.767395 476.57772s-8.228121-25.57221-.22408-35.38867c5.182806-6.3564 31.336777-3.28209 42.77484-1.12401 5.689306 1.07343 6.991082 2.57666 6.991082 2.57666" fill="none" stroke="#7183de" stroke-width="3"/>
        <path d="m392.81474 563.75342-16.7334 30.53712-9.82422 9.81933" fill="none" stroke="#fa7f70" stroke-linecap="round" stroke-linejoin="round" stroke-width="2.5"/>
        <path d="m160.59306 521.58057-5.33691 4.92677-6.98243 8.61816-2.45606 14.15527.41016 24.61914-2.05566 22.15333-4.5166 24.0039-2.67579 18.41797-1.7627 6.53809-.65428 3.22754-6.04493 11.96777-5.56641 8.70116-6.0498 2.53908-1.47461 5.91796" fill="none" stroke="#fa7f70" stroke-linecap="round" stroke-linejoin="round" stroke-width="2.5"/>
        <path d="m271.31641 353.21655s-20.23388-17.3652-15.42713-30.3274c25.31545-4.98096 47.21922-5.84832 56.91698-8.94089" fill="none" stroke="#7183de" stroke-width="3.5"/>
        <path d="m493.37626 700.76026-20.35156 4.25294-16.48926-3.34473-16.22559-7.77832" fill="none" stroke="#fa7f70" stroke-linecap="round" stroke-linejoin="round" stroke-width="2.5"/>
        <path d="m535.14036 1011.5609-14.09983-3.2322-74.44649 4.0331" fill="none" stroke="#fa7f70" stroke-linecap="round" stroke-linejoin="round" stroke-width="2.5"/>
        <path d="m483.93779 392.6255s6.86855-3.35947 10.05371-3.96484c2.69108-.51147 6.50903.79347 9.13085 0 1.57526-.47674 3.39826-1.88165 4.56544-3.042 3.12559-3.1073 5.99261-8.37336 8.21777-12.17774.82487-1.4103 1.4139-3.59789 2.4414-4.86816 2.94264-3.63789 8.24997-7.20059 12.17285-9.75097 2.33006-1.51484 6.15667-2.40433 8.22754-4.25782 2.69882-2.41553 3.65816-8.07661 6.69922-10.04393 2.33194-1.50858 6.40204-2.0453 9.13087-1.52833 2.09285.39649 4.8499 1.91965 6.08886 3.65234 1.52138 2.12766 2.82335 6.1073 1.82617 8.5254-1.78703 4.33344-8.55065 7.3645-13.09082 8.53027-3.54847.91113-8.68265.18517-12.17774-.91308-2.22917-.70047-6.7041-3.96485-6.7041-3.96485" fill="none" stroke="#fa7f70" stroke-linecap="round" stroke-linejoin="round" stroke-width="2.5"/>
        <path d="m616.95047 147.72804-6.25487-1.18653-5.15138-.92772-5.18066-.93263-16.11816-2.91504-9.20899-1.63086-17.34862-3.13964-4.50684-.66895-4.62403-.98145-7.38281-.54198-43.15917-7.71485" fill="none" stroke="#fa7f70" stroke-linecap="round" stroke-linejoin="round" stroke-width="1.5"/>
        <path d="m84.460254 536.34132s2.173317 8.2815 3.46679 11.70898c2.586159 6.85288 6.189685 16.06622 10.26367 22.15332 3.634696 5.43074 10.391656 11.15908 14.780276 16.00098 3.48613 3.8462 8.3262 8.82121 11.49902 12.92969 2.57658 3.33642 5.30903 8.28707 7.79785 11.68946 2.09445 2.86327 7.3877 9.23339 7.3877 9.23339" fill="none" stroke="#fa7f70" stroke-linecap="round" stroke-linejoin="round" stroke-width="2.5"/>
        <path d="m130.12919 327.16164 11.57226 5.1709 28.0127 4.57031 12.78809 6.69921 9.13573 1.82618 4.86818 5.17577 48.8037 8.10059" fill="none" stroke="#fa7f70" stroke-linecap="round" stroke-linejoin="round" stroke-width="2.5"/>
        <path d="m312.64221 205.02612c7.09218 6.90214 7.14727 25.92771 13.13198 31.31473 6.14573 5.53196 22.23581 4.33295 30.30458 2.52538 7.04308-1.5778 18.54604-15.33087 23.23351-19.1929 4.86224-4.00603-3.32413-22.77312-8.08122-29.7995-3.65967-5.40546-20.37845-31.49855-26.76904-32.82996-2.37201 6.05076-5.51525 23.25592-10.10153 25.25382-6.37324 6.24686-15.67821 18.35028-21.71828 22.72843z" fill="#b5fdb5" fill-rule="evenodd" transform="translate(-123.61644 54.31007)"/>
        <path d="m539.99247 421.99074-2.57325-.80079" style="fill:none;stroke:#fa7f70;stroke-width:2.5;stroke-linecap:round;stroke-linejoin:round;stroke-dasharray:1.25 3.75"/>
        <path d="m541.0911 446.69776 41.14259-1.59179" fill="none" stroke="#fa7f70" stroke-linecap="round" stroke-linejoin="round" stroke-width="2.5"/>
        <path d="m545.51005 153.92432 5.07812.74219 5.13673.88868 8.4375 1.06445 8.22265 1.4795 9.2041 1.43066 8.65722 1.34765 8.03223 1.24512 5.15625.80078 4.79981.74219 7.60254 1.33788-5.44923 37.59767-1.06445 7.3584-18.80371-2.57324-9.13574-1.51856-7.65625-1.16212" fill="none" stroke="#fa7f70" stroke-linecap="round" stroke-linejoin="round" stroke-width="1.5"/>
        <path d="m616.30595 104.52004-5.61035 42.02147-2.46094 17.12403-1.06446 3.88672-3.04688 3.04199-3.50097 1.74805-3.35938-.46875-5.06835-.70801-12.19238-1.69434-9.17969-1.27929-14.20899-1.98242-6.23046-.86427-3.19825-3.88183-1.22558-3.50098-.44922-4.03809 3.04687-18.5791" fill="none" stroke="#fa7f70" stroke-linecap="round" stroke-linejoin="round" stroke-width="1.5"/>
        <path d="m-7.7418957 392.78664s7.91706957-28.14272 15.3418-37.91017c5.2273127-6.87668 16.6502207-11.51067 22.8271397-17.54882 6.03953-5.90384 11.729348-15.91174 17.66113-21.92383 2.414946-2.44764 8.82813-7.30957 8.82813-7.30957" fill="none" stroke="#fa7f70" stroke-linecap="round" stroke-linejoin="round" stroke-width="2.5"/>
        <path d="m396.64286 1015.0962-32.96386 8.2617" fill="none" stroke="#fa7f70" stroke-linecap="round" stroke-linejoin="round" stroke-width="2.5"/>
        <path d="m-38.947956 342.9966s9.763327 3.09041 13.95996 4.375c7.020031 2.14883 16.2145683 5.74733 23.4472703 7.00682 2.7055412.47114 6.3984681.34814 9.14063.49805 3.9258147.21462 9.1548717.64744 13.0859197.71778 5.08458.09098 16.94825-.32226 16.94825-.32226" fill="none" stroke="#fa7f70" stroke-linecap="round" stroke-linejoin="round" stroke-width="2.5"/>
        <path d="m456.53544 701.66847s13.75283 13.84846 17.9834 20.97657c3.53106 5.9495 6.62937 14.81976 8.17871 21.5625 1.94481 8.46385 2.69971 20.14944 2.57812 28.833-.03263 2.33021-1.06316 5.38957-.9082 7.71485.40194 6.03138 3.54715 13.6515 4.99023 19.52148 1.36973 5.57161 4.12905 12.88192 4.39454 18.61328.19726 4.25839-.64974 10.01977-1.97267 14.07226-1.3429 4.11368-3.86354 9.547-6.81151 12.71485-3.03875 3.2654-8.4773 6.16669-12.56836 7.94434-3.447 1.49779-8.39998 2.63248-12.11914 3.17382-4.09291.59574-9.66034.07871-13.7793.4541-3.65974.33354-8.51024 1.09808-12.11426 1.8164-3.03094.6041-7.08585 1.4522-9.99511 2.49513-3.88271 1.39189-8.56494 4.42872-12.41699 5.90332-3.3638 1.28769-7.94896 2.88751-11.51368 3.40332-3.01112.43571-7.10521.19238-10.1416 0-4.2973-.27227-9.94375-1.49857-14.23828-1.81153-3.62532-.26419-8.48121-.34611-12.11427-.22949-5.18467.16642-13.8923 5.40527-17.23143 1.43555-1.82622-2.1711 1.79233-6.37653 2.38768-9.1504.97114-4.52478 2.04849-10.61197 2.57325-15.20995.34811-3.05012.61035-10.21485.61035-10.21485" fill="none" stroke="#fa7f70" stroke-linecap="round" stroke-linejoin="round" stroke-width="2.5"/>
        <path d="m-59.050496 402.36182s-1.620565-5.70413-1.82618-8.22265c-.268007-3.28274-.759242-7.96651.61037-10.96191 3.276938-7.16679 14.591903-11.65129 18.88183-18.26172 1.745664-2.68993 3.262582-6.8616 3.65723-10.04394.440744-3.55405-.124859-8.46551-1.22071-11.875-2.027777-6.30897-8.962789-12.85825-10.96679-19.17481-1.748332-5.5107-3.465668-13.64052-1.82618-19.18457 1.586141-5.36365 8.025816-10.29307 11.57715-14.61426 4.114836-5.00684 10.183103-11.21289 14.01368-16.44042 6.111892-8.3408 11.59644-21.33042 18.2763603-29.22364 3.4704031-4.10074 8.71003551-9.26101 13.40331-11.875 4.1657669-2.32019 10.5067987-3.87328 15.2246197-4.56543 4.340741-.63682 10.354122-1.00775 14.62402 0 5.965848 1.40801 12.626027 6.75928 18.27636 9.13574 4.634455 1.9492 10.81229 5.43926 15.83985 5.47364 22.710976.15531 71.884766-23.74513 71.884766-23.74513" fill="none" stroke="#fa7f70" stroke-linecap="round" stroke-linejoin="round" stroke-width="2.5"/>
        <path d="m115.42704 677.36671s-27.716644-3.73239-39.443346-6.16699c-12.559303-2.60746-28.851914-8.01167-41.38184-10.75683-9.489284-2.07899-22.249179-4.39458-31.8749997-5.70313-3.02643187-.41142-7.235938.00875-10.13673-.94726-4.3579563-1.43625-9.5891823-4.94483-13.0908103-7.91016-4.008981-3.39498-8.034499-9.2584-11.40137-13.29102-6.115922-7.32525-14.197949-17.15645-20.05859-24.6875-5.103263-6.5578-9.375973-18.01522-16.54785-22.21191-1.797449-1.05179-4.809812-.7109-6.88478-.88867-2.058292-.17634-4.814056-.28442-6.87987-.29298-1.581483-.00655-5.26856.18066-5.26856.18066" fill="none" stroke="#fa7f70" stroke-linecap="round" stroke-linejoin="round" stroke-width="2.5"/>
        <path d="m332.17509 817.60109 3.64257-17.25098 7.8711-16.34277 9.08691-22.7002 4.84375-19.06738 3.6377-23.6084 6.05469-19.06739" fill="none" stroke="#fa7f70" stroke-linecap="round" stroke-linejoin="round" stroke-width="2.5"/>
        <path d="m452.85869 682.46437 3.67675 19.2041 4.67285 32.39745 6.05468 24.52149v26.32813l-10.29785 24.51172-21.20117 23.61328-27.8662 10.89356-23.01759.9082-27.26074-5.44923-5.3125-3.70605-14.06738-9.91211-6.06445-8.17382-4.8291.9082" fill="none" stroke="#fa7f70" stroke-linecap="round" stroke-linejoin="round" stroke-width="2.5"/>
        <path d="m601.262 248.69484.42969-2.09962.04883-3.07128.71777-3.76953.07325-2.92969.85937-3.94531.23925-2.25099 1.50391-11.36717-15.54687-2.96875-9.21388-1.76759-7.35838-1.40625-10.1709-1.94824-13.42774-2.56836" fill="none" stroke="#fa7f70" stroke-linecap="round" stroke-linejoin="round" stroke-width="1.5"/>
        <path d="m553.18095 136.32667-2.59278 18.33984.42969 3.30079 1.81641 1.13281 2.39258.44921" fill="none" stroke="#fa7f70" stroke-linecap="round" stroke-linejoin="round" stroke-width="1.5"/>
        <path d="m554.01102 421.24366-.71777-20.05859 1.17676-.48828.78614-1.63574-.82033-1.74316-1.34276-.46875-1.47461.56152-.71289 1.49901.68848 1.69923 1.69921.57617" fill="none" stroke="#fa7f70" stroke-linecap="round" stroke-linejoin="round" stroke-width="2.5"/>
        <path d="m553.09306 396.84914-.42969-7.22169" fill="none" stroke="#fa7f70" stroke-linecap="round" stroke-linejoin="round" stroke-width="2.5"/>
        <path d="m556.61356 166.20949-.31737 4.37988-.6543 6.27442-.38574 5.02441-.30274 3.7793.45899 3.6328.90331 2.49512 1.36719 2.0459 1.66504 1.35743 1.96777.91307 2.42188-1.70897 2.12402-1.46973 1.51368-1.1377 2.65136.67872 2.19239.24902 1.8164.20996h1.28906l2.53419 2.94922.72265.68358 1.05957 1.35743 1.21094 1.13281h1.66992l2.26563-.67871 1.97265-1.81153 2.27051-2.7246.75684-2.2754.61035-4.39941.54687-4.93164.83984-6.62108.41016-4.44825" fill="none" stroke="#fa7f70" stroke-linecap="round" stroke-linejoin="round" stroke-width="1.5"/>
        <path d="m557.68779 136.99562-1.10352 8.73535-.85937 9.82422-.49805 3.99413 16.56737 2.83693 9.1504 1.56737 16.71875 2.86133.61523-4.69238 1.14259-9.80957.94237-7.63184" fill="none" stroke="#fa7f70" stroke-linecap="round" stroke-linejoin="round" stroke-width="1.5"/>
        <path d="m597.26297 171.87355-1.26465 10.83984-.46875 3.44727-1.40136 1.55761-3.73046-.55176-3.3838-.50781-3.48633-.52245-2.86132-.43458-4.70703-.70312-5.86426-.88379-4.55566-.6836-3.34473-.49804-3.44727-.51758-3.4912-.52734" fill="none" stroke="#fa7f70" stroke-linecap="round" stroke-linejoin="round" stroke-width="1.5"/>
        <path d="m555.64189 176.86379 3.59375.54687 3.5791.55175 3.33983.50294 3.14943.47851 1.37206.20996 5.77149.87403 2.09961.31737 2.73438.41504 3.00781.45899 3.05664.46875 3.59863.54687" fill="none" stroke="#fa7f70" stroke-linecap="round" stroke-linejoin="round" stroke-width="1.5"/>
        <path d="m556.29619 170.58937 3.76463.52734 3.66212.52246 6.60645.9375 9.1748 1.29883 5.44922.77149 2.96386.41992 3.86719.54688" fill="none" stroke="#fa7f70" stroke-linecap="round" stroke-linejoin="round" stroke-width="1.5"/>
        <path d="m556.58427 145.73097 5.33203.77637.45899-3.75977 7.27538 1.25488-.37597 3.41797 4.51171.92774 2.81739.43456.3125-2.85156.75684-1.8164 1.51367-.90821 1.51855.90821v2.49511l-.20507 2.77344 2.57323.40039 4.98535.77149.35157-4.15528 6.82617 1.11816-.67871 4.04785 4.86329.74708" fill="none" stroke="#fa7f70" stroke-linecap="round" stroke-linejoin="round" stroke-width="1.5"/>
        <path d="m560.06082 171.11671-.82518 6.29395-.48829 5.00488-.27344 3.93066.30274 2.27051.99121 1.81153.98145 1.36718 1.21094 1.02539 1.77734 1.58204" fill="none" stroke="#fa7f70" stroke-linecap="round" stroke-linejoin="round" stroke-width="1.5"/>
        <path d="m678.66921 253.66554-8.0713-1.47462-18.0517-3.32518-.7959-2.83692-2.2803-1.28906-2.5244.55175-1.5723 2.26563-23.64256-4.28223-7.8418-1.42577-2.79296-.52735-3.67677-.85938-4.96093-.708-3.44238-.65919-4.00879-.63965-3.23731-.64941-13.84765-2.52929-6.69434-1.16211-11.00097-2.06544 2.61719-20.8789.36132-2.9248" fill="none" stroke="#fa7f70" stroke-linecap="round" stroke-linejoin="round" stroke-width="1.5"/>
        <path d="m561.9163 146.50734-.44923 4.19433 3.19337.50782 4.22851.43945.38575-4.22852" fill="none" stroke="#fa7f70" stroke-linecap="round" stroke-linejoin="round" stroke-width="1.5"/>
        <path d="m563.72294 171.63917-.9082 6.32324-.62012 4.97071-.12207 2.73438.60547 2.04101.91308 1.59179 1.20606.90821 2.57813 1.58691" fill="none" stroke="#fa7f70" stroke-linecap="round" stroke-linejoin="round" stroke-width="1.5"/>
        <path d="m562.47294 541.14601 17.65625-1.28906 13.4875-11.43883 74.04182-4.84745" fill="none" stroke="#fa7f70" stroke-linecap="round" stroke-linejoin="round" stroke-width="2.5"/>
        <path d="m564.66044 151.20949-.49804 5.41015" fill="none" stroke="#fa7f70" stroke-linecap="round" stroke-linejoin="round" stroke-width="1.5"/>
        <path d="m591.82717 480.65641 1.51523 32.81202c3.21719.09015 5.06233-.15324 8.89396-.2346l-1.82904-32.9166z" fill="#b5fdb5" fill-rule="evenodd"/>
        <g fill="none">
            <path d="m667.03133 507.84329s-9.90521-1.79836-14.71462-4.08498c-4.12329-1.9604-10.25902-3.07288-14.3115-5.17577-4.38076-2.27324-9.11359-7.13088-13.48149-9.42872-4.81733-2.53427-11.54933-6.29484-16.99218-6.36231-4.14814-.05142-9.11068 3.27663-13.06642 4.52638-3.16998 1.0015-7.59071 1.75605-10.6543 3.04687-3.39375 1.42994-7.39504 4.38364-10.65917 6.08886-2.57913 1.34737-8.75976 4.16504-8.75976 4.16504" stroke="#fa7f70" stroke-linecap="round" stroke-linejoin="round" stroke-width="2.5"/>
            <path d="m566.15457 178.46535-.61522 4.96581.16601 2.45606 1.36719 1.82129 2.57812.34179 5.92774.80079 1.64063.21972 2.2705-.68359 1.17676-2.68555.61524-4.94141" stroke="#fa7f70" stroke-linecap="round" stroke-linejoin="round" stroke-width="1.5"/>
            <path d="m575.03641 140.13526-1.25 8.2129-1.40136 9.75098-.59083 4.28711-.97167 5.80566-.49316 4.38476-1.02539 6.36719" stroke="#fa7f70" stroke-linecap="round" stroke-linejoin="round" stroke-width="1.5"/>
            <path d="m570.67606 179.15382-.58105 4.96094-.44434 3.93554.37598 4.42384" stroke="#fa7f70" stroke-linecap="round" stroke-linejoin="round" stroke-width="1.5"/>
            <path d="m571.22782 234.11476.80078-9.4043.98634-11.5918.23925-2.82715" stroke="#fa7f70" stroke-linecap="round" stroke-linejoin="round" stroke-width="1.5"/>
            <path d="m572.21904 192.72316-.46388 4.29688" stroke="#fa7f70" stroke-linecap="round" stroke-linejoin="round" stroke-width="1.5"/>
            <path d="m590.51981 207.38625-.93261 8.90625-1.19629 11.48437-9.375-1.75293-6.98731-1.31348" stroke="#fa7f70" stroke-linecap="round" stroke-linejoin="round" stroke-width="1.5"/>
            <path d="m573.23466 566.32667 4.31153-5.16601 2.583-21.30371" stroke="#fa7f70" stroke-linecap="round" stroke-linejoin="round" stroke-width="2.5"/>
            <path d="m576.44755 180.02785-.48828 4.9707-.38086 3.85254-1.54297 4.08203" stroke="#fa7f70" stroke-linecap="round" stroke-linejoin="round" stroke-width="1.5"/>
            <path d="m584.95341 174.64699-.66406 6.57226-.76173 4.917-.36621 2.02636-.68359 1.8164-1.05957 1.25-1.28906.79103-1.43554.57128-1.51368.3418h-1.85547" stroke="#fa7f70" stroke-linecap="round" stroke-linejoin="round" stroke-width="1.5"/>
            <path d="m576.6038 148.78272-.29298 2.14357v2.7246l.90822 1.81641 1.51366-.2295.90821-.79101.67871-2.57324.18067-2.49024" stroke="#fa7f70" stroke-linecap="round" stroke-linejoin="round" stroke-width="1.5"/>
            <path d="m587.91727 175.06691-.57128 6.62109-.33204 4.9707-.89843 3.43262-.53223 1.8164-1.13769 1.7041-1.35743 1.02052-1.66992 1.02051-3.55956.22949" stroke="#fa7f70" stroke-linecap="round" stroke-linejoin="round" stroke-width="1.5"/>
            <path d="m581.38407 205.86769-1.01075 8.65722-1.35741 11.49903-1.09375 9.25293" stroke="#fa7f70" stroke-linecap="round" stroke-linejoin="round" stroke-width="1.5"/>
            <path d="m584.2454 141.76612-1.17188 8.01758-1.48437 9.7461-.64453 4.42382-.94238 5.51758-.49805 4.4043-.95703 6.46972" stroke="#fa7f70" stroke-linecap="round" stroke-linejoin="round" stroke-width="1.5"/>
            <path d="m582.23369 445.10597 1.61621-7.46582 3.20312-3.51563 5.81054-2.24121 6.46485 1.1377 4.25781 3.85741 1.75293 6.31837-.22461 5.23437-3.65723 4.76563-6.60644 2.49512-6.87012-1.50879-3.65234-3.34961z" stroke="#fa7f70" stroke-linecap="round" stroke-linejoin="round" stroke-width="2.5"/>
            <path d="m588.05887 150.55519-.36621 4.31152 3.16406.50781 3.16895.54688.53223-4.35548" stroke="#fa7f70" stroke-linecap="round" stroke-linejoin="round" stroke-width="1.5"/>
            <path d="m590.85672 155.37452-.61035 5.50293" stroke="#fa7f70" stroke-linecap="round" stroke-linejoin="round" stroke-width="1.5"/>
            <path d="m612.90262 250.92629-11.64062-2.23145-10.58594-2.03125 1.09375-8.85743 1.11329-9.18945 10.74706 2.01171 11.25 2.1045-.99121 9.11622z" stroke="#fa7f70" stroke-linecap="round" stroke-linejoin="round" stroke-width="1.5"/>
            <path d="m667.08231 521.95655 27.3877-2.23633" stroke="#fa7f70" stroke-linecap="round" stroke-linejoin="round" stroke-width="2.5"/>
            <path d="m592.67314 419.19289.19042 12.69042" stroke="#fa7f70" stroke-linecap="round" stroke-linejoin="round" stroke-width="2.5"/>
            <path d="m595.54911 232.81105 7.8418.06836 8.44238 3.125-.7373 5.31738-.78614 5.64453-8.61816-.3711-7.21192-2.6709.52735-5.46875z" stroke="#fa7f70" stroke-linecap="round" stroke-linejoin="round" stroke-width="1.5"/>
            <path d="m605.54422 145.61379-2.10937 17.30956-.77636 3.2129-2.11914.6787h-2.87598" stroke="#fa7f70" stroke-linecap="round" stroke-linejoin="round" stroke-width="1.5"/>
            <path d="m594.85087 455.69191-.01953 12.65136" stroke="#fa7f70" stroke-linecap="round" stroke-linejoin="round" stroke-width="2.5"/>
            <path d="m602.53154 236.82472 1.97265.45898 1.7041.78614 1.21093 2.39257-.9082 2.49024-2.19726.57129h-2.57324l-1.3672-.7959-.9082-1.58692-.44921-2.0459.98144-1.58691 1.28419-.5664z" stroke="#fa7f70" stroke-linecap="round" stroke-linejoin="round" stroke-width="1.5"/>
            <path d="m667.25321 273.15285 11.3037 2.2705" stroke="#fa7f70" stroke-linecap="round" stroke-linejoin="round" stroke-width="1.5"/>
            <path d="m675.16821 122.7378-5.0927 55.55176 10.3271 1.28419-.664 22.02636-1.0694 52.06543-.1123 21.75781-.039 8.38867" stroke="#fff" stroke-linecap="round" stroke-linejoin="round" stroke-width="7.5"/>
            <path d="m605.33915 443.19679 55.32716-2.1582" stroke="#fa7f70" stroke-linecap="round" stroke-linejoin="round" stroke-width="2.5"/>
            <path d="m610.38797 202.60109 9.20899 1.44042 8.49121 1.32813 26.88964 4.21875 9.0772 1.41602" stroke="#fa7f70" stroke-linecap="round" stroke-linejoin="round" stroke-width="1.5"/>
            <path d="m663.30791 219.47609 11.8603 1.91406-4.5703 30.80077-3.3447 20.96193-21.4453-4.77051-27.27051-5.88868 3.19335-19.21875 4.99024-29.70215 1.36718-8.20312 1.40137-8.21777" stroke="#fa7f70" stroke-linecap="round" stroke-linejoin="round" stroke-width="1.5"/>
            <path d="m663.30791 219.47609.7471-8.47168.7617-8.49121-8.5205-1.33301-26.80667-4.02832-8.82324-1.3379-1.06934 8.22754-1.05956 8.21778 8.18359 1.31347 26.95312 4.35059z" stroke="#fa7f70" stroke-linecap="round" stroke-linejoin="round" stroke-width="1.5"/>
            <path d="m767.43881 224.98879-6.2891 12.39746-14.419 28.4082.1758 15.51269 1.4014 35.58552 4.17513.89945 1.76705 34.82525" stroke="#fff" stroke-linecap="square" stroke-linejoin="round" stroke-width="11.75"/>
            <path d="m905.99553 419.31843s-24.97703 1.51516-27.93939-1.21161c-3.01157-2.77206-15.76383-22.8446-15.76383-22.8446l-5.3223-17.02148-8.8721-12.94434-14.4336-13.82813-15.7275-12.58788-16.792-9.93164-17.3877-6.38184-11.5918-2.48047-16.6092-.23775 3.19342 81.14735 50.77418-1.95453 6.0498.29786 4.6143 4.4287 4.1357.18068 39.17203-1.77317" stroke="#fff" stroke-linecap="round" stroke-linejoin="round" stroke-width="5"/>
            <path d="m746.90651 281.30714-68.3886 2.50488-89.19926 2.98828-1.00099-18.75" stroke="#fff" stroke-linecap="round" stroke-linejoin="round" stroke-width="8"/>
            <path d="m299.14286 454.31495.15136 11.94825" stroke="#fff" stroke-linecap="round" stroke-linejoin="round" stroke-opacity=".4" stroke-width="7.5"/>
            <path d="m299.14286 454.31495.15136 11.94825" stroke="#fa7f70" stroke-dasharray="1.25 3.75" stroke-linecap="round" stroke-linejoin="round" stroke-width="2.5"/>
            <path d="m274.8831 325.6382 11.49414 22.63671" stroke="#fa7f70" stroke-linecap="round" stroke-linejoin="round" stroke-width="2.5"/>
            <path d="m721.39871 366.29737-.3271-8.02733" stroke="#fff" stroke-linecap="round" stroke-linejoin="round" stroke-opacity=".4" stroke-width="7.5"/>
            <path d="m721.39871 366.29737-.3271-8.02733" stroke="#fa7f70" stroke-dasharray="1.25 3.75" stroke-linecap="round" stroke-linejoin="round" stroke-width="2.5"/>
            <path d="m40.436814 468.90967.52734 10.28809" stroke="#fff" stroke-linecap="round" stroke-linejoin="round" stroke-opacity=".4" stroke-width="7.5"/>
            <path d="m40.436814 468.90967.52734 10.28809" stroke="#fa7f70" stroke-dasharray="1.25 3.75" stroke-linecap="round" stroke-linejoin="round" stroke-width="2.5"/>
            <path d="m758.81081 400.28175-9.4482.89355" stroke="#fff" stroke-linecap="round" stroke-linejoin="round" stroke-opacity=".4" stroke-width="7.5"/>
            <path d="m758.81081 400.28175-9.4482.89355" stroke="#fa7f70" stroke-dasharray="1.25 3.75" stroke-linecap="round" stroke-linejoin="round" stroke-width="2.5"/>
            <path d="m729.89481 508.58741.1807 8.79884" stroke="#fff" stroke-linecap="round" stroke-linejoin="round" stroke-opacity=".4" stroke-width="7.5"/>
            <path d="m729.89481 508.58741.1807 8.79884" stroke="#fa7f70" stroke-dasharray="1.25 3.75" stroke-linecap="round" stroke-linejoin="round" stroke-width="2.5"/>
            <path d="m764.50911 470.80421-10.6983.4834" stroke="#fff" stroke-linecap="round" stroke-linejoin="round" stroke-opacity=".4" stroke-width="7.5"/>
            <path d="m764.50911 470.80421-10.6983.4834" stroke="#fa7f70" stroke-dasharray="1.25 3.75" stroke-linecap="round" stroke-linejoin="round" stroke-width="2.5"/>
            <path d="m-97.761436 491.80519-2.329104-15.07813" stroke="#fff" stroke-linecap="round" stroke-linejoin="round" stroke-opacity=".4" stroke-width="7.5"/>
            <path d="m-97.761436 491.80519-2.329104-15.07813" stroke="#fa7f70" stroke-dasharray="1.25 3.75" stroke-linecap="round" stroke-linejoin="round" stroke-width="2.5"/>
            <path d="m-119.88439 483.94719 9.72311-.53047 158.302524-8.53226" stroke="#7183de" stroke-linecap="round" stroke-linejoin="round" stroke-width="7.464108"/>
            <path d="m532.78544 473.41651 9.47266-.33202" stroke="#fff" stroke-linecap="round" stroke-linejoin="round" stroke-opacity=".4" stroke-width="7.5"/>
            <path d="m532.78544 473.41651 9.47266-.33202" stroke="#fa7f70" stroke-dasharray="1.25 3.75" stroke-linecap="round" stroke-linejoin="round" stroke-width="2.5"/>
            <path d="m537.41922 421.18995-7.46093.4834" stroke="#fff" stroke-linecap="round" stroke-linejoin="round" stroke-opacity=".4" stroke-width="7.5"/>
            <path d="m537.41922 421.18995-7.46093.4834" stroke="#fa7f70" stroke-dasharray="1.25 3.75" stroke-linecap="round" stroke-linejoin="round" stroke-width="2.5"/>
            <path d="m299.14286 454.31495.15136 11.94825" stroke="#000" stroke-width="7.5"/>
            <path d="m299.14286 454.31495.15136 11.94825" stroke="#fff" stroke-linecap="round" stroke-linejoin="round" stroke-width="5.625"/>
            <path d="m721.39871 366.29737-.3271-8.02733" stroke="#000" stroke-width="7.5"/>
            <path d="m721.39871 366.29737-.3271-8.02733" stroke="#fff" stroke-linecap="round" stroke-linejoin="round" stroke-width="5.625"/>
            <path d="m40.436814 468.90967.52734 10.28809" stroke="#000" stroke-width="7.5"/>
            <path d="m40.436814 468.90967.52734 10.28809" stroke="#fff" stroke-linecap="round" stroke-linejoin="round" stroke-width="5.625"/>
            <path d="m758.81081 400.28175-9.4482.89355" stroke="#000" stroke-width="7.5"/>
            <path d="m758.81081 400.28175-9.4482.89355" stroke="#fff" stroke-linecap="round" stroke-linejoin="round" stroke-width="5.625"/>
            <path d="m729.89481 508.58741.1807 8.79884" stroke="#000" stroke-width="7.5"/>
            <path d="m729.89481 508.58741.1807 8.79884" stroke="#fff" stroke-linecap="round" stroke-linejoin="round" stroke-width="5.625"/>
            <path d="m764.50911 470.80421-10.6983.4834" stroke="#000" stroke-width="7.5"/>
            <path d="m764.50911 470.80421-10.6983.4834" stroke="#fff" stroke-linecap="round" stroke-linejoin="round" stroke-width="5.625"/>
            <path d="m-97.761436 491.80519-2.329104-15.07813" stroke="#000" stroke-width="7.5"/>
            <path d="m-97.761436 491.80519-2.329104-15.07813" stroke="#fff" stroke-linecap="round" stroke-linejoin="round" stroke-width="5.625"/>
            <path d="m532.78544 473.41651 9.47266-.33202" stroke="#000" stroke-width="7.5"/>
            <path d="m532.78544 473.41651 9.47266-.33202" stroke="#fff" stroke-linecap="round" stroke-linejoin="round" stroke-width="5.625"/>
            <path d="m537.41922 421.18995-7.46093.4834" stroke="#000" stroke-width="7.5"/>
            <path d="m537.41922 421.18995-7.46093.4834" stroke="#fff" stroke-linecap="round" stroke-linejoin="round" stroke-width="5.625"/>
            <path d="m660.26101 415.59914-67.58787 3.59375-38.66212 2.05077-14.01855.74708 1.09863 24.70702 1.04981 23.78419 52.69043-2.13868 66.74317-2.71972-.9082-24.58496z" stroke="#fa7f70" stroke-linecap="round" stroke-linejoin="round" stroke-width="2.5"/>
            <path d="m542.63686 422.03049-14.33384-.35714-16.96777 1.8457-6.63575 12.91016-205.66406 11.875-170.20019 9.8291-20.41993-21.12792-28.291006.02441" stroke="#fa7f70" stroke-linecap="round" stroke-linejoin="round" stroke-width="2.5"/>
            <path d="m838.47171 434.27656 4.4003-.1662 64.8521-2.4486" stroke="#7183de" stroke-linecap="round" stroke-linejoin="round" stroke-width="8.9275"/>
            <path d="m141.68901 679.49286-57.930196-12.34577-85.4707697-18.51868-10.8725703-1.89935-14.24513-36.5625 25.5925303-78.34821-1.89935-48.43344" stroke="#424242" stroke-width="2.5"/>
            <path d="m-3.1364557 465.34109 2.84900999-38.46185 18.99350971-7.5974 43.68506-66.95212 22.79222-31.81412 120.608746-186.61119 8.07223-18.51866 64.57792-53.18183" stroke="#424242" stroke-width="2.5"/>
            <path d="m280.10417 61.25425 19.46835 1.42452 212.25243 207.50404 12.82062 43.21023" stroke="#424242" stroke-width="2.5"/>
            <path d="m71.504842 295.01244s14.158982 12.80013 21.390795 15.25602c6.90788 2.34588 17.104453 1.39866 24.315993.29607 7.81356-1.19463 25.04647-8.17828 25.04647-8.17828" stroke="#fa7f70" stroke-linecap="round" stroke-linejoin="round" stroke-width="2.5"/>
        </g>
        <path d="m411.63716 26.986735c3.77153.593713 4.96951 6.954838 3.53554 12.626906-1.11456 4.408626-8.81649 11.82102-10.85915 10.85914-2.40264-1.131395-1.6263-6.884304-1.26269-13.384521.38758-6.92856 5.1589-10.641065 8.5863-10.101525z" fill="#7183de" fill-rule="evenodd" transform="translate(-123.61644 54.31007)"/>
        <path d="m493.53758 583.72558.59291 5.66406 10.47572.70244.10185-5.7959" fill="#c99"/>
        <path d="m509.59925 585.33273-.47853 5.66406 11.54715.70244-.25529-5.7959" fill="#c99"/>
        <path d="m479.95639 588.54702 1.30719 4.94978 11.54715-.72614-.25529-5.08161" fill="#c99"/>
        <path d="m507.81353 571.40416-.83567 5.30692 10.47573 1.77386 1.17327-4.72447" fill="#c99"/>
        <path d="m511.95816 334.42277-5.23253-.05319-.19513 16.09087 5.35647.03179z" fill="#c99"/>
        <path d="m528.02596 335.62049-5.23253-.05319-.19513 16.09087 5.35647.03179z" fill="#c99"/>
        <path d="m509.45453 278.83477-5.23253-.05319-.19513 16.09087 5.35647.03179z" fill="#c99"/>
        <path d="m527.24193 322.35079-2.36183-4.66947-14.37391 7.23498 2.43789 4.76965z" fill="#c99"/>
        <path d="m553.3831 347.74213-5.23253-.03198-.19513 9.67498 5.35647.01911z" fill="#c99"/>
        <path d="m589.81168 301.32063-11.77429-.03905-.43908 11.81361 12.05318.02334z" fill="#c99"/>
        <path d="m590.70454 318.46349-11.77429-.03905-.43908 11.81361 12.05318.02334z" fill="#c99"/>
        <path d="m165.54507 589.90743c4.7879-7.04523 21.18538-21.77347 27.94679-20.54913 6.12404 1.10894 6.84178 13.14244 11.5075 17.26126 2.06683 1.82456 4.79151 3.67098 6.476 5.85347 2.9254 3.79025 4.08407 9.81497 1.54421 13.87368-1.61802 2.58561-3.34974 2.8446-6.37628 2.4659-3.61268-.45205-7.07609-5.27663-10.68553-5.75375-4.26937-.56435-9.67892 3.60928-13.97341 3.28785-3.97265-.29734-9.56579-2.06253-12.32946-4.93178-2.54309-2.64025-6.17031-8.47558-4.10982-11.5075z" fill="#50b958" fill-rule="evenodd"/>
        <path d="m181.1624 626.07386c.62437-2.46082 4.85924-4.15211 7.39768-4.10982 2.8753.0479 5.35794 4.64842 8.21964 4.93178 3.64798.36122 7.84489-4.26301 11.50751-4.10982 2.97694.12451 7.93136 1.34484 9.04161 4.10982.98962 2.46459-1.32817 6.42713-3.28786 8.21965-1.89965 1.7376-5.6533 2.26156-8.21965 2.4659-3.7198.29617-6.30377-4.07199-10.0046-4.55001-1.97169-.25467-7.22065 3.14723-8.90058 2.08411-2.71683-1.71929-6.54447-5.92522-5.75375-9.04161z" fill="#50b958" fill-rule="evenodd"/>
        <path d="m520.86808 1007.789 7.31641-75.42976-14.90696-7.57615" fill="none" stroke="#fa7f70" stroke-linecap="round" stroke-linejoin="round" stroke-width="2.5"/>
        <path d="m263.3831 316.92391 1.32082 11.78501" fill="none" stroke="#000" stroke-width="7.5"/>
        <path d="m225.98867 635.93744c-4.81857 3.65047-.29832 15.59038 4.10982 19.72714 3.8144 3.57956 11.56527 7.7889 13.77396 3.04712 1.36973-2.94066 2.82215-10.93979.92168-13.83238-3.8154-5.80714-13.26697-13.13775-18.80546-8.94188z" fill="#50b958" fill-rule="evenodd"/>
        <path d="m352.93916 316.70623c-5.78768 1.74565-4.54168 18.72394-2.96125 23.26268 1.5853 4.5527 10.29514 5.26351 14.27904 2.54204 2.67867-1.82985 3.09529-12.39503 2.94199-15.85269-.27987-6.31221-8.72129-11.62252-14.25978-9.95203z" fill="#b5fdb5" fill-rule="evenodd"/>
        <path d="m360.85894 322.5438-5.23253-.05319-.19513 16.09087 5.35647.03179z" fill="#c99"/>
        <path d="m-17.2599 617.00155 5.85835 17.53989" fill="none" stroke="#e0e032" stroke-width="5"/>
        <path d="m308.45439 874.14439 15.14406 18.25418" fill="none" stroke="#e0e032" stroke-width="5"/>
        <path d="m239.52582 777.71583 6.57263 11.82561" fill="none" stroke="#e0e032" stroke-width="5"/>
        <path d="m509.28571 967.53284 139.28572-3.57142 3.21428-5.17857m79.28572-395.17857 70.35713-5.7143m-145.71427 394.28572 17.14285-40.35714-1.42857-13.39286-2.85714-25.53571-7.85714-8.39286 5.71428-12.67857-17.85714-98.57143-15.71429-72.14286-10-47.85714 39.28571-55.71428 58.92857-12.14285m-231.78571 334.2857s17.7416 30.68956 20.00001 58.57143" fill="none" stroke="#424242" stroke-width="2.5" transform="translate(-123.61644 54.31007)"/>
        <path d="m601.11318 589.56886.58535 18.25898 1.26269 15.38713" fill="none" stroke="#fa7f70" stroke-linecap="round" stroke-linejoin="round" stroke-width="2.5"/>
        <path d="m665.71429 853.24713 8.48477 8.90319-5.62763 9.16316" fill="none" stroke="#424242" stroke-width="2.5" transform="translate(-123.61644 54.31007)"/>
        <path d="m676.79403 613.21816 28.46479-.60764" fill="none" stroke="#c99" stroke-width="5"/>
        <path d="m529.65116 646.43245 9.89336-13.46478" fill="none" stroke="#c99" stroke-width="5.10664"/>
        <path d="m538.42536 633.25315 11.27353-1.74905" fill="none" stroke="#c99" stroke-width="5.086306"/>
        <path d="m707.86545 596.07531.96479 14.39236" fill="none" stroke="#c99" stroke-width="4"/>
        <path d="m732.68688 594.82531.96479 15.10664" fill="none" stroke="#c99" stroke-width="4"/>
        <path d="m749.82973 594.11102.96479 15.46378" fill="none" stroke="#c99" stroke-width="4"/>
        <path d="m757.68689 611.96817-22.2495 1.17807" fill="none" stroke="#c99" stroke-width="4"/>
        <path d="m732.50831 613.39674-22.2495 1.17807" fill="none" stroke="#c99" stroke-width="4"/>
        <path d="m734.47259 600.00388 14.53622-.96479" fill="none" stroke="#c99" stroke-width="4"/>
        <path d="m721.97259 595.00387.96479 14.39236" fill="none" stroke="#c99" stroke-width="4"/>
        <path d="m717.20831 237.351 84.85281-2.52538m-154.67589 24.66208 62.28283-21.63162" fill="none" stroke="#424242" stroke-width="2.5" transform="translate(-123.61644 54.31007)"/>
        <path d="m566.94812 949.00347h33.08249v-27.27411h-34.09265zm-12.62691-27.27411h-36.11295v27.27412l36.11295-.00001z" fill="none" stroke="#fff" transform="translate(-123.61644 54.31007)"/>
        <path d="m518.71333 929.3055 6.06092.50507.50507 11.61676h-6.56599" fill="none" stroke="#fff" transform="translate(-123.61644 54.31007)"/>
        <path d="m442.8266 982.60541 6.06092.50507.50507 11.6168h-6.56599" fill="none" stroke="#fff"/>
        <path d="m476.20224 985.1308-6.56598-.00001.50507 12.12181 6.56599-.50508" fill="none" stroke="#fff"/>
        <path d="m431.46238 984.62574-8.58629-.00001.50507 12.12181 6.56599-.50508" fill="none" stroke="#fff"/>
        <path d="m263.45453 317.6382 1.02496 10.26978" fill="none" stroke="#fff" stroke-linecap="round" stroke-linejoin="round" stroke-width="5.625"/>
        <path d="m681.94561 328.96827.4443 10.10254 8.916-.30761.8301 16.89941 57.0459-2.69531-2.334-38.56934-7.1484.47851 1.9678 30.87892-42.9346 2.23143-1.4844-30.32715-6.9677.46388.5175 10.40039z" fill="#c99"/>
        <path d="m688.76691 287.40577 1.1865 24.03809 6.9678-.4834-.7959-16.25489 42.1191-2.6709 1.0205 16.01075 7.168-.49316-1.4258-23.53516z" fill="#c99"/>
        <path d="m689.95341 311.44386 56.4795-3.8916.415 6.8457-56.5673 3.72559z" fill="#c99"/>
        <path d="m822.26417 241.89669 1.01015 12.12183 36.3655-3.03046v-11.61675z" fill="#b5fdb5" fill-rule="evenodd" transform="translate(-123.61644 54.31007)"/>
        <path d="m699.12431 321.3304 1.01015 23.55041 38.50836-1.60189-2.14286-25.18818z" fill="#b5fdb5" fill-rule="evenodd"/>
        <path d="m707.59607 533.84515.83158 10.69326 16.00836-.8876-.35715-10.7239z" fill="#b5fdb5" fill-rule="evenodd"/>
        <path d="m726.87431 533.29468.83158 10.69327 18.50836-1.06618-.17858-10.36676z" fill="#b5fdb5" fill-rule="evenodd"/>
        <path d="m708.48146 547.93754.83158 11.22897 16.18692-.70903-.89285-11.43818z" fill="#b5fdb5" fill-rule="evenodd"/>
        <path d="m728.16002 547.04467 1.01015 10.69327 17.97265-.53046-.53572-11.43819z" fill="#b5fdb5" fill-rule="evenodd"/>
        <path d="m710.11915 571.61113.41878 11.09946 38.37357-1.67609-.49332-11.13632z" fill="#b5fdb5" fill-rule="evenodd"/>
        <path d="m626.64681 529.9831.50508 10.8412c7.2578.59523 13.64862-.65832 18.74294-.2346l.44381-11.7034z" fill="#b5fdb5" fill-rule="evenodd"/>
        <path d="m633.66031 530.84334.42128 5.35577 4.47139-.28382-.07495-5.35902" fill="#c99"/>
        <path d="m582.48326 547.32648-.50507 11.34628c7.2578.59523 67.43924-1.41594 72.53356-.99222l7.26234-11.45086z" fill="#b5fdb5" fill-rule="evenodd"/>
        <path d="m594.85763 530.40642 1.76777 56.29806c3.9748-1.17253 4.30471-.91086 8.64141-1.74983l-1.57649-55.13996z" fill="#b5fdb5" fill-rule="evenodd"/>
        <path d="m141.50757 680.23017 45.46752 53.35634 40.80638 35.84904 40.29132 63.29091 99.01008 121.94401" fill="none" stroke="#424242" stroke-width="2.5"/>
        <path d="m380.38797 1023.8072.47364-17.373-8.83301-28.92105-10.35156-21.01563-8.99414-8.50587-91.17675-118.45698-37.92481-56.31347-38.97462-37.45116-44.1455-52.67579-25.03418-5.72754" fill="none" stroke="#fa7f70" stroke-linecap="round" stroke-linejoin="round" stroke-width="2.5"/>
        <path d="m331.55633 225.38016c-1.59021 3.0139-.92811 5.38413.82682 8.1104 1.24338 1.93156 15.8151 1.15161 15.79427-.74097-.02553-2.31999 1.08566-3.67398-.34101-6.50877-1.30623-2.5955-15.35799-2.6083-16.28008-.86066z" fill="#b5fdb5" fill-rule="evenodd"/>
        <path d="m367.38902 274.76965c5.44449-2.7026 7.65627-4.5677 10.5473-2.99826 9.284 5.03996 12.26861 16.27268 24.81297 19.46913 13.50607 3.44151 31.54401 1.75072 35.64979 3.63229 11.97279 5.48682 20.12541 8.71968 28.79231 10.42852l23.56821.51517" fill="none" stroke="#fa7f70" stroke-linecap="round" stroke-linejoin="round" stroke-width="2.5"/>
        <path d="m817.48352 134.0686h9.500114v8.570788h-9.500114z" fill="#c99" transform="matrix(.978141 .2079427 -.2079427 .978141 0 0)"/>
        <path d="m863.10046-76.477989h9.013091v7.708392h-9.013091z" fill="#c99" transform="matrix(.8969537 .4421244 -.4421244 .8969537 0 0)"/>
        <path d="m867.99213-214.11469h9.485359v6.191019h-9.485359z" fill="#c99" transform="matrix(.8143285 .5804042 -.5804042 .8143285 0 0)"/>
        <path d="m843.90393-387.43112h9.884902v5.756599h-9.884902z" fill="#c99" transform="matrix(.6808611 .7324125 -.7324125 .6808611 0 0)"/>
        <path d="m681.73621-671.36658h7.836101v4.177939h-7.836101z" fill="#c99" transform="matrix(.3662237 .9305268 -.9305268 .3662237 0 0)"/>
        <path d="m314.90271-944.52502h8.599074v4.413792h-8.599074z" fill="#c99" transform="matrix(-.1631096 .986608 -.986608 -.1631096 0 0)"/>
        <path d="m-3.756578-1001.1829h9.618672v4.888477h-9.618672z" fill="#c99" transform="matrix(-.4978078 .8672874 -.8672874 -.4978078 0 0)"/>
        <path d="m-361.61005-931.69537h16.722773v4.949601h-16.722773z" fill="#c99" transform="matrix(-.7973596 .6035045 -.6035045 -.7973596 0 0)"/>
        <path d="m903.40253-380.72089h5.761244v7.110917h-5.761244z" fill="#c99" transform="matrix(.5501147 .8350891 -.8350891 .5501147 0 0)"/>
        <path d="m705.27466 647.03662h8.942846v3.881945h-8.942846z" fill="#c99" transform="matrix(.9931595 -.1167656 .1167656 .9931595 0 0)"/>
        <path d="m303.58029 304.87898 11.67797-3.215" fill="none" stroke="#000" stroke-width="7.5"/>
        <path d="m304.37109 304.70803 10.31067-2.58737" fill="none" stroke="#fff" stroke-linecap="round" stroke-linejoin="round" stroke-width="5.625"/>
        <path d="m317.50887 348.80755 12.39225 3.21357" fill="none" stroke="#000" stroke-width="7.5"/>
        <path d="m269.79323 309.07143s35.17599-3.65459 40.94464-5.63004c7.30349-2.50104 40.78318-26.05732 40.78318-26.05732s12.68846-5.11444 15.64523-2.5865c9.31339 7.96261 11.36306 26.91214 18.72275 36.91283 6.15877 8.36882 24.83301 24.1446 24.83301 24.1446l18.38439 15.18341 18.50694 11.48943c13.2313 3.47363 15.12541 5.50539 22.72088 10.42852l19.63964 30.51517" fill="none" stroke="#fa7f70" stroke-linecap="round" stroke-linejoin="round" stroke-width="2.5"/>
        <path d="m317.6568 348.85089 12.09638 3.12691" fill="none" stroke="#fff" stroke-linecap="round" stroke-linejoin="round" stroke-width="5.625"/>
        <path d="m282.93935 153.10991 11.67797-3.215" fill="none" stroke="#000" stroke-width="7.5"/>
        <path d="m283.99871 152.86304 9.55305-2.58737" fill="none" stroke="#fff" stroke-linecap="round" stroke-linejoin="round" stroke-width="5.625"/>
        <path d="m283.69697 66.489325 12.18305 2.593378" fill="none" stroke="#000" stroke-width="7.5"/>
        <path d="m284.0018 66.428045 11.8259 2.715931" fill="none" stroke="#fff" stroke-linecap="round" stroke-linejoin="round" stroke-width="5.625"/>
        <path d="m83.776654 508.96827 33.481446-3.33985 14.98046-23.37401 167.5586-8.8086 207.73438-10.91796" fill="none" stroke="#fa7f70" stroke-linecap="round" stroke-linejoin="round" stroke-width="2.5"/>
        <path d="m299.29422 466.2632.50294 7.18261.76171 17.68555-2.30468 5.53223-15.10742 16.91895-12.10937 4.92675-15.60059.61035-16.01562-1.8457-9.02833 3.69628-14.37011 9.84375" fill="none" stroke="#fa7f70" stroke-linecap="round" stroke-linejoin="round" stroke-width="2.5"/>
        <path d="m263.89325 328.16358s-10.09298 23.18499-18.5834 30.54102c-5.33741 4.62428-15.9802 4.53494-22.14844 7.97364-3.85549 2.14938-11.02623 4.76867-11.51855 9.15527-.56554 5.03906 7.05193 9.538 10.57129 13.18848 2.85306 2.95936 7.13712 6.41753 10.3711 8.95507 3.54853 2.78435 8.59349 6.07622 12.25097 8.71583 4.10416 2.96198 9.15098 7.57723 13.61328 9.96581 4.66099 2.49493 11.34343 5.13034 16.54785 6.05957 6.13445 1.09529 16.96246-4.88295 20.77149.04883 2.44537 3.16616-3.79668 8.93578-3.33984 12.91016.48821 4.24727 5.54893 8.306 6.60644 12.44838.44611 1.74746.28599 18.33217.28599 18.33217" fill="none" stroke="#fa7f70" stroke-linecap="round" stroke-linejoin="round" stroke-width="2.5"/>
        <path d="m274.37724 348.27491s13.95215-5.926 19.96093-4.6289c3.70669.80015 6.28995 7.11154 10.03907 7.68066 3.52118.53452 4.04918-2.97695 7.6092-3.08047 5.1117-.14864 14.5905 2.55069 19.85211 3.92364 5.6442 1.47279 11.9991 6.49214 17.43615 8.60507 4.73056 1.83837 11.37529 3.29246 16.24511 4.72169 7.18327 2.1082 16.55769 5.76511 23.92579 7.08984 5.15734.92725 12.19556.87736 17.42675 1.18163 5.49035.31934 12.91854-.19396 18.31055.88868 7.39078 1.48397 16.67144 5.64881 23.62305 8.56445 6.43234 2.69785 14.72462 6.93619 20.97167 10.03906 6.06938 3.01462 14.18822 6.99866 20.08302 10.3418 6.7158 3.80876 14.79713 10.46017 21.85546 13.58886 4.47643 1.98423 15.74386 9.37867 15.69406 4.48243-.13672-13.44237-1.59942-30.90838-1.98312-43.99205-.10145-3.4595-5.82949-5.8814-7.08008-9.10854-1.69744-4.38023-1.23046-15.61035-1.23046-15.61035" fill="none" stroke="#fa7f70" stroke-linecap="round" stroke-linejoin="round" stroke-width="2.5"/>
        <path d="m40.436814 468.90967-40.89355971 2.01662-7.95409999.39062" fill="none" stroke="#fa7f70" stroke-linecap="round" stroke-linejoin="round" stroke-width="2.5"/>
        <path d="m82.458294 488.43605s-1.057071-21.7351-1.58692-31.25c-8.18048-1.69998-19.858596-.95759-27.91992 1.35254-2.198903.63014-4.875423 2.28389-6.65526 3.7207-2.068987 1.67023-5.85938 6.65038-5.85938 6.65038" fill="none" stroke="#fa7f70" stroke-linecap="round" stroke-linejoin="round" stroke-width="2.5"/>
        <g fill="none" transform="matrix(.7171439 -.6969251 .6969251 .7171439 -708.26445 613.45764)">
            <path d="m576.64723 501.65179 9.47266-.33202" stroke="#000" stroke-width="7.5"/>
            <path d="m576.64723 501.65178 9.47266-.33202" stroke="#fff" stroke-linecap="round" stroke-linejoin="round" stroke-width="5.625"/>
        </g>
        <path d="m506.89607 531.93284s10.77267 9.2069 13.5798 14.45242c3.80559 7.11128 1.80806 17.07092 4.6603 24.61529 1.66634 4.40758.34827 23.30441 7.06359 27.36438 7.18779.15966 19.06818-2.05813 18.89928.7868-.35782 6.02696-14.58026 14.89736-20.11477 17.3101-10.42636 4.54531-68.88686 8.65589-98.91661 10.82187-19.52175 1.40806-45.62256 2.10353-65.15625 3.33496-3.93338.24797-9.24757.15244-13.10059.98145-5.17088 1.11256-11.27962 5.90601-16.56737 6.03028-1.74251.04095-3.80709-1.83404-5.54688-1.72852-3.99792.24248-9.08528 2.9321-12.17285 5.48339-2.58147 2.13309-3.91395 6.91067-6.4209 9.13086-3.1473 2.7873-8.6334 4.65782-12.35351 6.61622-5.67271 2.98631-13.07311 7.3269-18.9795 9.81933-6.87416 2.90082-16.28935 6.3538-23.59862 7.85157-6.95514 1.4252-16.59225 3.19609-23.58399 1.96288-5.54126-.97737-12.11527-5.11893-17.03125-7.85645-3.27054-1.82124-7.15157-5.03733-10.41016-6.87987-.58917-.33314-1.45708-.62124-2.03613-.97168-4.20202-2.54304-8.63005-7.78505-13.10059-9.81933-5.12131-2.33041-12.72704-3.53219-18.33985-3.92579-4.12817-.28949-9.68257 1.68516-13.75976.97656-3.59732-.6252-7.78136-3.46964-11.13769-4.90722-3.52221-1.50863-8.4601-3.01505-11.792-4.90723-2.0322-1.15409-4.14231-3.64414-6.25487-4.64356-3.55707-1.6828-9.06849-1.72848-12.72461-3.18359-4.64719-1.84954-10.45306-5.27804-14.53125-8.17382-3.3595-2.38546-7.299103-6.2616-10.302736-9.08204-1.123568-1.05504-2.228258-2.99819-3.63281-3.63281-3.900411-1.76234-10.00898-.24607-14.23829-.90332-1.110058-.17251-2.594869-.47846-3.6328-.90821-2.447594-1.01342-5.472875-2.92665-7.57325-4.54101-1.705923-1.31118-4.13542-3.09587-5.14649-4.99511-1.690483-3.17548-1.473923-8.26358-2.12401-11.80177-.801509-4.36232-3.99674-10.28226-2.72461-14.53125.976978-3.26317 5.680172-5.57388 7.88086-8.17382 3.942345-4.65758 8.215789-11.64436 12.10937-16.34278 2.925487-3.53021 8.757988-6.93083 10.37598-11.2207 2.898884-7.68597-.317809-19.16672-.6836-27.37305-.274855-6.16623-.64745-17.03251-1.31836-20.53222-3.112665-.63926-20.896333 2.4893-29.39942.14649-2.559511-.70521-9.263754-4.15095-11.32812-5.82032-1.539924-1.24528-1.480886-13.56446-1.480886-13.56446" fill="none" stroke="#fa7f70" stroke-linecap="round" stroke-linejoin="round" stroke-width="2.5"/>
        <path d="m332.20165 351.60595c1.64942-1.27291 1.04885-7.15962 1.32597-9.22459.26731-1.99191.51924-4.75769 0-6.69922-1.79684-6.71871-9.89376-13.33865-11.57226-20.08789-1.25758-5.05671.93121-12.15755.61035-17.3584-.1424-2.30825-.44667-5.43131-1.21581-7.6123-.98001-2.77893-3.17102-6.12345-4.87794-8.52539-3.78798-5.33036-8.43268-13.5716-14.30664-16.44531-1.47991-.72402-4.31138.85515-5.4834-.30274-6.77311-6.69145-3.49526-22.24183-2.13378-31.66504 1.01685-7.03793 7.30297-15.18016 8.22265-22.23145 1.24593-9.55274-2.58518-22.34495-3.04199-31.96777-.19491-4.10573 1.04179-9.72504 0-13.70118-1.27503-4.86634-9.45191-9.73615-8.22265-14.61425.79274-3.14583 7.04421-3.30617 9.13574-5.78613 3.06243-3.63118 5.16156-9.95647 6.09375-14.61425 1.57762-7.88274 1.35096-18.87214 0-26.79688-.92725-5.439234-5.65348-11.853409-6.09375-17.35352-.33478-4.182268 2.57374-9.570143 2.47558-13.76464-.05874-2.510215-1.86523-8.15919-1.86523-8.15919" fill="none" stroke="#fa7f70" stroke-linecap="round" stroke-linejoin="round" stroke-width="2.5"/>
        <path d="m80.871374 457.18605s-1.366232-14.13698-.74706-20.15625c.783535-7.61712 4.624586-17.27004 6.11816-24.78028 1.323863-6.65687 1.248052-15.92895 3.39355-22.36816 1.769016-5.30929 5.798634-11.72709 8.82325-16.43555 3.949106-6.14763 10.565746-13.39304 14.726546-19.39941 5.42882-7.83684 12.2993-18.55885 16.94337-26.88476 4.03124-7.22723 6.44849-18.75737 12.12891-24.77539 4.25139-4.50406 12.36926-7.52653 17.98827-10.13184 6.46666-2.99834 15.27863-6.90538 22.2754-8.26661 7.3032-1.42084 17.39081-1.4968 24.79004-.71776 8.16229.85938 19.39487 2.50661 26.58203 6.46972 3.62049 1.99639 6.82898 6.81947 9.90235 9.58496 5.54809 4.9923 15.62102 9.34704 19.08691 15.95703 1.18516 2.26028.88303 4.17604 1.0289 6.95644.0771 1.46971.87865 4.29607.90372 5.76758.14173 8.57325 10.20914-4.17506 13.70703-4.39395 4.20156-.26292 9.98805.64416 13.833 2.3584 2.72571 1.21523 6.7915 3.36722 7.79785 6.17677.91372 2.55095-.39708 6.5796-1.90918 8.82812-.7922 1.17802-3.90625 2.6709-3.90625 2.6709" fill="none" stroke="#fa7f70" stroke-linecap="round" stroke-linejoin="round" stroke-width="2.5"/>
        <path d="m142.2581 302.38625s.88347-11.64414 2.49022-16.33301c1.45788-4.25443 4.54163-9.54245 7.3047-13.09083 2.7796-3.56961 7.13664-7.94361 10.96679-10.35156 2.81417-1.76922 7.20651-2.87445 10.34669-3.96484 4.33867-1.50655 10.73392-2.10357 14.61425-4.56055 3.98779-2.52502 7.36449-8.19244 10.65919-11.57226 2.93076-3.00648 7.76359-6.21899 10.04882-9.74121 6.08748-9.38264 9.9374-24.20451 12.78809-35.01954.70783-2.6854.4342-6.57626 1.52344-9.13085 2.81596-6.60423 8.29971-15.25235 14.30663-19.18458 4.70934-3.08281 13.38696-1.46573 18.27149-4.2627 4.3735-2.50434 6.94108-10.18991 11.57226-12.17772 3.18888-1.36874 8.46304 1.67448 11.92453 1.42857 3.8656-.27462 8.00919-2.59731 12.43095-3.25475 2.43051-.36138 3.75638 4.70556 6.08886 5.47852 10.57029 3.50289 26.0241-5.53825 36.95931-3.43527 6.17795 1.1881 14.32446 4.99913 18.67127 9.54709 6.15164 6.43632 6.46228 20.2876 12.30277 27.00754 5.91237 6.80265 15.6329 7.04786 20.79198 14.12227 5.95317 8.1633 17.09091 32.67458 17.85847 52.72848.72052 18.82469-3.74563 40.06822.94924 48.88032 5.07735 9.52997 26.80675 22.38888 39.60151 36.44923 5.24572 5.7646 23.31447 24.65953 26.82481 31.77533" fill="none" stroke="#fa7f70" stroke-linecap="round" stroke-linejoin="round" stroke-width="2.5"/>
        <path d="m269.58231 308.89015s-4.08686 7.33579-6.69921 6.3916c-5.96611-2.15634-2.19223-14.66654-2.43165-21.00586-.17251-4.56773-1.00284-10.9459.60547-15.2246 2.14847-5.71572 10.20627-10.30148 12.78809-15.83497 4.0143-8.60365 2.18135-22.40421 6.09375-31.05468 1.23455-2.72963 5.04287-5.10775 6.08886-7.91504 1.66138-4.45892 1.55848-11.12055.91309-15.83496-.49768-3.63541-3.53297-7.92788-3.95996-11.57227-.66208-5.65087.04364-13.47388 1.82617-18.87696.66759-2.02356 3.29319-3.98935 3.65723-6.08886.39789-2.29473-.58648-5.48011-1.52344-7.6123-1.68322-3.83043-5.96814-7.8928-7.86551-11.62179-2.43713-4.78982-4.84336-11.41675-5.83566-16.69854-3.51853-18.72833-12.32526-43.836947-3.84765-60.90331 1.73965-3.50211 5.57782-6.484196 9.41615-8.660021 3.6941-2.094068 11.64678 1.082319 16.3623 2.147054 2.97432.671585 5.24182 2.923608 7.94713 4.330357 1.26721.658944 3.28928 1.116975 4.22363 2.19726 30.71089 35.50746 84.86757 81.87346 122.70509 121.18164 2.94584 3.06034 5.1525 8.63991 6.08886 12.7832 1.1279 4.99083-.55062 11.96867 0 17.05566.32194 2.97428 2.13379 9.74121 2.13379 9.74121 1.386 6.32738 16.20098 10.87497 16.50133 18.25007.33466 8.21776-4.53844 20.65332-1.89196 28.94232 1.54036 4.82454 8.96221 8.31911 10.65919 13.09081.73478 2.06611 0 5.11671 0 7.30958 0 3.65625-.93018 8.65155 0 12.1875.61344 2.33191 2.29064 5.25242 3.95507 6.99707 2.01287 2.10989 6.2396 3.04238 8.22754 5.17578 1.97827 2.12302 3.30333 5.9149 4.56055 8.53027 1.80789 3.76092 3.39395 9.17111 5.48339 12.7832 2.05945 3.56025 5.84067 7.61725 8.22755 10.9668 2.17457 3.05162 5.18556 7.06649 6.99706 10.34668 2.41233 4.36816 6.69923 15.22461 6.69923 15.22461" fill="none" stroke="#fa7f70" stroke-linecap="round" stroke-linejoin="round" stroke-width="2.5"/>
        <path d="m374.36886 596.46618 11.52693 4.72866 7.60742-1.2207s11.1753-4.43348 16.1377-3.95997c3.70416.35345 7.54959 5.26879 11.26953 5.18067 2.77779-.0658 5.50368-3.69033 8.22266-4.2627 5.64181-1.18765 13.52441 2.33757 19.17969 1.21582 2.28574-.45339 4.86667-2.42597 6.97753-3.41309 3.81457-1.78385 9.3709-3.30298 12.81738-5.72265 5.60369-3.93419 12.03331-10.74274 15.83009-16.44043 3.31215-4.97042 5.0559-13.02514 7.91991-18.2666 3.69321-6.75899 8.71645-14.70607 14.30665-21.31837-2.89393-15.06845-1.67149-18.2051.91309-25.27343 4.41591-12.07667 25.708-34.29688 25.708-34.29688l-25.2539-10.88866" fill="none" stroke="#fa7f70" stroke-linecap="round" stroke-linejoin="round" stroke-width="2.5"/>
        <g fill="none" transform="matrix(-.0474773 .9988723 -.9988723 -.0474773 1089.2846 -36.963203)">
            <path d="m576.64723 501.65179 9.47266-.33202" stroke="#000" stroke-width="7.5"/>
            <path d="m576.64723 501.65178 9.47266-.33202" stroke="#fff" stroke-linecap="round" stroke-linejoin="round" stroke-width="5.625"/>
        </g>
        <path d="m542.14091 470.48195.11719 2.60254 6.37206 3.48143 7.17286 8.62794 6.79688 11.60156 1.79199 3.82324-3.86719 14.14551 1.94824 26.38184 4.30663 20.33691 6.45509 4.84375.43456 26.46973" fill="none" stroke="#fa7f70" stroke-linecap="round" stroke-linejoin="round" stroke-width="2.5"/>
        <path d="m117.2581 505.62842 12.54394 8.56934 17.65625 4.92188 13.13477 2.46093 25.04883-.61035 13.13965 1.8457 17.24121 7.99805 17.44629 13.54004 30.38573 19.69728 29.14552 12.30956 22.583 3.07617 19.70703-3.6914 17.33399-3.92578 40.19043-8.06642 12.08983-10.70312 17.68555-18.6621 20.96192-12.76856 20.30762-16.68945 21.3623-13.44727 12.17774-6.09375s9.46734-5.09489 13.78208-6.67061c14.96033-5.46344 30.69503-5.80713 30.69503-5.80713" fill="none" stroke="#fa7f70" stroke-linecap="round" stroke-linejoin="round" stroke-width="2.5"/>
        <path d="m-100.09054 476.72706s-2.80181-25.83737-1.29394-36.77246c.51549-3.73835 1.590891-8.94339 3.828134-11.98243 2.963094-4.02502 9.500331-6.76601 13.64745-9.55566 7.366162-4.955 16.483035-13.11094 24.8584-16.05469 10.666766-3.74912 26.528128-1.08831 37.49024-3.85741 4.349747-1.09877 9.672708-4.00279 13.8183603-5.71777 3.8392214-1.58822 9.0407851-3.51914 12.79785-5.29298 6.3490937-2.99763 15.6295377-6.10668 20.6494097-11.01562 5.218697-5.10337 8.348776-14.84498 11.92871-21.20605 1.379377-2.45097 3.410841-5.62008 4.59962-8.16895 5.285287-11.33224 8.327009-28.24031 14.68261-39.00879 3.128076-5.29999 9.058298-11.16117 13.31542-15.60546 5.593059-5.83896 13.678703-12.99841 19.73145-18.35938 9.436508-8.35799 23.789356-17.62727 32.128896-27.08009 4.01614-4.55227 7.56307-11.98092 11.01075-16.97753 2.38494-3.45641 7.04878-7.27313 8.27637-11.28907 1.36234-4.45677-2.62043-11.3179-.61035-15.52246 3.91447-8.18807 18.08925-11.41319 24.27246-18.05664 5.05832-5.43482 9.76589-14.3405 13.31055-20.86425 5.04779-9.29016 7.99694-23.8242 14.61425-32.07032 2.3914-2.98003 7.72107-4.73383 10.1709-7.66601 3.87939-4.64319 5.15223-13.40722 9.08204-18.00782 12.53876-14.67904 37.8006-24.767903 52.22167-37.60253 2.8859-2.568426 8.68653-9.50684 8.68653-9.50684" fill="none" stroke="#fa7f70" stroke-linecap="round" stroke-linejoin="round" stroke-width="2.5"/>
        <path d="m-100.09054 475.29849 91.6796943-3.98158" fill="none" stroke="#fa7f70" stroke-linecap="round" stroke-linejoin="round" stroke-width="2.5"/>
        <path d="m363.679 1023.3579s-10.87956.2898-15.542.2149c-4.5291-.0727-10.57677-.2331-15.083-.6934-9.9423-1.0155-23.14711-3.0492-32.9004-5.2295-10.33281-2.3099-23.98227-6.1128-33.89648-9.8291-19.79147-7.4187-44.96745-20.27877-63.8916-29.6924-22.99798-11.44012-54.80714-25.1029-75.62012-40.15625-5.38103-3.89193-12.52926-9.6442-15.98145-15.31738-3.86141-6.34567-3.84432-17.02635-7.00195-23.75-3.13387-6.67305-9.428124-14.39272-13.701176-20.40036-3.657318-5.14196-8.280079-12.2514-12.64647-16.80665-6.872257-7.16951-18.264154-14.29607-25.58594-21.00585-8.476915-7.76836-18.983409-18.96629-26.80664-27.39259-6.208668-6.68728-14.879635-15.34461-20.1025497-22.82715-5.70698485-8.17603-10.8139291-20.60727-15.8398303-29.21875-5.378209-9.21513-14.248901-20.52764-18.88673-30.13671-4.294062-8.89682-7.713669-21.7219-10.96679-31.0498-5.914869-16.96011-13.826046-39.56652-19.49218-56.61134-3.167765-9.52925-6.677829-22.4784-10.21974-31.875-3.124154-8.28831-9.232031-18.58927-11.7871-27.07031-.729853-2.4226-1.117193-5.7995-1.46485-8.30566-1.611202-11.61468-.411296-27.70604-3.94531-38.88671-4.364153-13.80701-12.220987-60.86984-12.220987-60.86984" fill="none" stroke="#fa7f70" stroke-linecap="round" stroke-linejoin="round" stroke-width="2.5"/>
        <path d="m809.75687 151.61133-12.0117 13.94532-11.7627 23.45702-18.6865 35.91798" fill="none" stroke="#fff" stroke-linecap="round" stroke-linejoin="round" stroke-width="11.75"/>
        <path d="m868.10845 455.61797-.8692 10.05092-2.27604 8.29938-8.9405 17.61719-14.3652 20.32715-19.0869 16.87011-13.5547 8.42774-11.7578 5.87403-7.9395 3.4668-9.5752 3.16406-5.8935.29785-6.24787-.06905-1.68183-33.95928-1.4111-45.18066 44.7021-1.5332 7.8125-.83985 4.7803-3.73046 3.081-3.59375 37.1485-2.74484s13.67698-10.70886 16.51874-12.11461c4.31385-2.13396 27.59017-1.75746 27.59017-1.75746" fill="none" stroke="#fff" stroke-linecap="round" stroke-linejoin="round" stroke-width="5"/>
    </g>
</svg>
