<svg xmlns="http://www.w3.org/2000/svg" viewBox="0 0 32 32">
  <defs
     id="defs3051">
    <style
       type="text/css"
       id="current-color-scheme">
      .ColorScheme-Text {
        color:#4d4d4d;
      }
      </style>
  </defs>
  <path
     style="fill:currentColor;fill-opacity:1;stroke:none" 
     d="M 16.001953 3.9980469 A 12 12 0 0 0 4.0019531 15.998047 A 12 12 0 0 0 16.001953 27.998047 A 12 12 0 0 0 28.001953 15.998047 A 12 12 0 0 0 16.001953 3.9980469 z M 16.001953 4.9980469 A 11 11 0 0 1 27.001953 15.998047 A 11 11 0 0 1 16.001953 26.998047 A 11 11 0 0 1 5.0019531 15.998047 A 11 11 0 0 1 16.001953 4.9980469 z M 10 12 L 10 20 L 17 16 L 10 12 z M 17 16 L 17 20 L 24 16 L 17 12 L 17 16 z "
     id="path8" 
     class="ColorScheme-Text"
     />
</svg>
