<?xml version="1.0" encoding="UTF-8" standalone="no"?>
<!-- Created with Inkscape (http://www.inkscape.org/) -->

<svg
   width="512"
   height="512"
   viewBox="0 0 135.46666 135.46667"
   version="1.1"
   id="svg1361"
   inkscape:version="1.1.2 (0a00cf5339, 2022-02-04)"
   sodipodi:docname="gc.svg"
   xmlns:inkscape="http://www.inkscape.org/namespaces/inkscape"
   xmlns:sodipodi="http://sodipodi.sourceforge.net/DTD/sodipodi-0.dtd"
   xmlns:xlink="http://www.w3.org/1999/xlink"
   xmlns="http://www.w3.org/2000/svg"
   xmlns:svg="http://www.w3.org/2000/svg">
  <sodipodi:namedview
     id="namedview1363"
     pagecolor="#ffffff"
     bordercolor="#666666"
     borderopacity="1.0"
     inkscape:pageshadow="2"
     inkscape:pageopacity="0.0"
     inkscape:pagecheckerboard="0"
     inkscape:document-units="px"
     showgrid="false"
     units="px"
     inkscape:zoom="1.4142136"
     inkscape:cx="201.17188"
     inkscape:cy="261.98306"
     inkscape:window-width="1920"
     inkscape:window-height="1164"
     inkscape:window-x="4520"
     inkscape:window-y="720"
     inkscape:window-maximized="1"
     inkscape:current-layer="layer1" />
  <defs
     id="defs1358">
    <linearGradient
       inkscape:collect="always"
       xlink:href="#linearGradient66849"
       id="linearGradient5404"
       gradientUnits="userSpaceOnUse"
       gradientTransform="matrix(0.69548254,0,0,0.69548254,17.71649,21.08013)"
       x1="62.659069"
       y1="36.657513"
       x2="80.402321"
       y2="10.551746" />
    <linearGradient
       id="linearGradient66849">
      <stop
         style="stop-color:#f6a11d;stop-opacity:1;"
         offset="0"
         id="stop66845" />
      <stop
         style="stop-color:#f6a11d;stop-opacity:0;"
         offset="1"
         id="stop66847" />
    </linearGradient>
  </defs>
  <g
     inkscape:label="Layer 1"
     inkscape:groupmode="layer"
     id="layer1">
    <g
       id="g1608"
       transform="matrix(1.4094481,0,0,1.4094481,-19.597559,-28.330656)">
      <path
         style="color:#000000;display:inline;fill:#ffffff;stroke-width:0.684052;stroke-linecap:square;-inkscape-stroke:none;paint-order:stroke markers fill"
         d="m 45.09843,26.09167 c -2.22014,-3.6e-4 -4.39702,0.0943 -6.48448,0.26618 -1.95128,0.16068 -6.15261,3.61971 -7.11902,5.03729 -0.16974,0.0499 -0.33612,0.10307 -0.49772,0.16084 -0.82918,2.04296 -2.13278,3.55239 -0.75506,6.90585 -2.21047,-0.2425 -4.27911,0.57828 -6.20063,3.79263 -3.44943,6.52163 -1.255321,15.648656 -1.807741,25.208506 -0.62154,6.03631 0.346779,12.258017 0.153726,18.286957 L 107.00075,74.9077 c 0,-0.57999 -0.2815,-1.35847 -1.01029,-1.53946 -8.69946,-2.36133 -17.32605,-4.82422 -25.90368,-7.4467 0.032,-0.0188 0.0639,-0.0377 0.0951,-0.058 0.61872,-0.40187 1.27337,-1.1198 1.64622,-1.54406 0.14768,-0.16804 0.11468,-0.33109 0.01,-0.4956 0.11626,-0.0683 0.22082,-0.14081 0.3033,-0.21881 1.12622,-1.06511 0.0259,-3.09577 -0.30188,-3.58513 C 79.40835,56.3895 78.43565,53.56099 77.856,49.53355 77.8036,49.1693 77.33848,48.65289 78.16071,48.47271 79.21759,48.24112 79.45275,47.52213 79.61109,46.80175 80.25118,43.88923 78.81777,40.6609 77.11992,38.20938 74.25041,34.06611 69.75409,30.85352 65.00674,29.16136 58.80976,26.95249 51.75911,26.09308 45.09868,26.09162 Z"
         id="path5338"
         sodipodi:nodetypes="ccccccccccccsccccscsscc" />
      <path
         style="fill:#f79130;fill-opacity:1;stroke:none;stroke-width:0.148336px;stroke-linecap:butt;stroke-linejoin:miter;stroke-opacity:1"
         d="m 24.04164,42.25403 c -3.44954,6.52164 -4.81169,15.93878 -5.36411,25.49877 -0.62154,6.0363 -1.75487,11.9784 -1.75857,18.01043 l -0.011,17.9285 c 0.011,3.55553 2.88917,6.53087 6.64009,6.53087 H 54.52298 C 52.755,105.62768 48.92325,98.9708 46.10021,93.65023 44.52029,90.67254 43.90408,88.23661 45.82764,84.24204 48.28121,79.14682 52.6933,75.2434 55.8183,70.53006 c 0.24865,-0.37505 0.51639,-0.73862 0.69551,-1.15698 0.23063,-0.53865 0.43394,-0.86397 0.73422,-0.42838 1.40346,2.03586 5.03259,4.06957 8.08859,4.60293 1.96399,0.34277 4.68792,0.39922 5.89303,-1.02243 0.16366,-0.19307 0.22831,-0.81383 -0.32129,-0.68798 -2.58522,0.58804 -6.36892,-1.75449 -8.56428,-3.24818 -0.83742,-0.56977 -1.66036,-1.30696 -2.23156,-2.00409 -0.20852,-0.2545 -0.23717,-0.79201 0.0281,-0.98667 1.50906,-1.10741 2.93868,-1.93896 5.92078,-2.29655 0,0 -1.09131,-1.79878 -0.79196,-2.68134 0.34235,-1.00934 2.58438,-1.88268 2.58438,-1.88268 -3.67052,-3.49856 -4.65736,-8.14298 -3.63273,-14.15546 0,0 -5.19333,-1.92154 -7.91294,-2.32054 -2.71084,-0.39773 -5.52134,-0.0451 -8.21943,-0.0501 0,0 -4.07348,-8.05579 -7.82265,-10.04355 -2.73565,-1.45041 -6.59497,-1.56795 -9.26891,-0.61207 -0.82918,2.04297 -2.13287,3.55238 -0.75515,6.90584 -2.21053,-0.2425 -4.27878,0.57803 -6.20035,3.79259 z"
         id="path5340"
         sodipodi:nodetypes="ccscccssssssscssscsccscscccc" />
      <path
         id="path5342"
         style="fill:#f8b44c;fill-opacity:1;stroke:none;stroke-width:0.148336px;stroke-linecap:butt;stroke-linejoin:miter;stroke-opacity:1"
         d="m 65.10619,61.15249 c 0.14453,0.90347 0.8144,2.01065 0.8144,2.01065 -2.9821,0.3576 -4.41164,1.1892 -5.9207,2.29661 -0.26527,0.19466 -0.23663,0.73199 -0.0281,0.98649 0.57119,0.69713 1.39399,1.4345 2.23141,2.00427 2.19536,1.49369 5.97921,3.83607 8.56441,3.24804 0.54961,-0.12585 0.48495,0.49502 0.32129,0.68808 -1.20511,1.42165 -3.92916,1.3652 -5.89319,1.02243 -3.056,-0.53336 -6.68521,-2.56719 -8.08867,-4.60306 -0.30028,-0.43559 -0.50352,-0.11015 -0.73415,0.4285 -0.17912,0.41835 -0.44667,0.7818 -0.69532,1.15684 -3.125,4.71335 -7.5371,8.61689 -9.99068,13.71211 -1.92356,3.99457 -1.30758,6.43039 0.27234,9.40806 2.82303,5.32057 6.7958,12.11616 8.56377,16.71109 h 45.87044 c 3.71828,0 6.60723,-2.90228 6.60723,-6.60537 V 74.90781 c 0,-0.57999 -0.28158,-1.35852 -1.01038,-1.53951 C 92.21107,69.62814 78.61391,65.63544 65.10619,61.15249 Z"
         sodipodi:nodetypes="ccssscssssssscccscc" />
      <path
         id="path5344"
         style="fill:url(#linearGradient5404);fill-opacity:1;stroke:none;stroke-width:0.148349px;stroke-linecap:butt;stroke-linejoin:miter;stroke-opacity:1"
         d="m 45.09857,26.09166 c -2.22015,-4.4e-4 -4.39704,0.0944 -6.4845,0.26625 -1.95136,0.16069 -6.15284,3.6198 -7.11898,5.03724 2.62489,-0.73109 6.10994,-0.53552 8.63769,0.80466 3.74916,1.98776 7.82271,10.04369 7.82271,10.04369 2.69809,0.005 5.50849,-0.34761 8.21933,0.0501 2.71961,0.39901 7.9131,2.32036 7.9131,2.32036 -1.02463,6.01257 -0.0378,10.65716 3.63278,14.15572 0,0 -2.24222,0.87326 -2.58458,1.8826 -0.12737,0.37552 7.6e-4,0.91397 0.18572,1.41209 -0.2015,-0.64365 -0.11385,-1.50695 0.80194,-2.22881 0.83438,-0.6577 0.95996,-0.92852 1.58069,-1.03285 0.67221,-0.11299 1.52508,-0.11174 2.12176,-0.57772 0.70952,-0.55411 0.98822,-1.47729 1.13034,-2.31715 0.30612,-1.80902 0.0311,-4.21026 0.22309,-5.31663 0.19512,-1.12426 -2.35542,-1.64042 -3.55775,-2.36069 -0.6563,-0.39316 -1.35328,-0.83274 -1.74671,-1.48887 -0.28548,-0.47607 -0.76179,-1.24791 -0.35607,-1.62677 0.33421,-0.35163 4.19147,1.05847 6.08149,1.24116 0.44392,0.0429 0.40532,-0.24591 0.50034,-0.95318 0.0844,-0.62808 -0.0147,-1.49357 -0.0298,-2.21722 -0.005,-0.25271 0.55218,-0.61353 0.61768,-0.36939 0.11598,0.43221 -0.0877,3.39333 -0.3717,5.1202 -0.6227,3.78684 0.13376,7.75027 0.89638,8.12175 -2.28276,2.72306 -4.77403,4.49967 -4.8047,7.5469 -0.0101,1.00484 0.34689,0.88271 0.68403,1.03951 1.6333,0.75963 2.51927,1.05421 3.61627,1.34111 0.40877,0.10691 0.76323,-0.17626 1.01605,-0.75761 0.30518,-0.70175 0.6348,-2.86343 1.63402,-3.8243 0.24597,-0.23653 0.64815,-0.5115 0.95636,-0.36504 1.0785,0.51246 2.40888,1.15304 3.70145,1.53087 0.54351,0.15887 1.05186,0.32486 1.40167,0.75414 0.14031,0.17218 0.31519,0.33669 0.41922,0.50006 0.11626,-0.0683 0.22057,-0.14074 0.30305,-0.21874 1.12622,-1.06511 0.0259,-3.09562 -0.30189,-3.58499 -2.43117,-3.63043 -3.4037,-6.45894 -3.98335,-10.48638 -0.0524,-0.36424 -0.51744,-0.88083 0.30479,-1.06101 1.05688,-0.23159 1.29199,-0.95072 1.45033,-1.6711 0.64019,-2.91252 -0.79316,-6.14068 -2.491,-8.59219 C 74.25031,34.06615 69.75372,30.85338 65.00637,29.16122 58.80939,26.95234 51.75904,26.0931 45.09861,26.09164 Z M 65.4018,62.27589 c 0.21267,0.51617 0.43449,0.89912 0.48817,0.98968 -0.004,-0.16278 -0.11181,-0.38769 -0.31231,-0.6736 -0.0652,-0.093 -0.12436,-0.19992 -0.17586,-0.31608 z m 0.48267,1.06472 c -1.85194,0.22645 -3.10464,0.63648 -4.14994,1.1835 0.007,6.8e-4 0.0183,-4.5e-4 0.0249,2.9e-4 1.07232,-0.51532 2.28419,-0.7916 3.76809,-0.9526 0.21394,-0.0232 0.32968,-0.10082 0.35693,-0.23118 z" />
      <path
         id="path5346"
         style="fill:#1a1a1a;fill-opacity:1;stroke:none;stroke-width:0.148349px;stroke-linecap:butt;stroke-linejoin:miter;stroke-opacity:1"
         d="m 72.56394,42.73545 c -0.18418,0.0104 -0.49677,0.26068 -0.49281,0.45022 0.0151,0.72365 0.11425,1.58914 0.0298,2.21722 -0.095,0.70726 -0.0564,0.99609 -0.50035,0.95318 -1.89002,-0.18269 -5.74728,-1.59279 -6.08149,-1.24116 -0.40572,0.37886 0.0706,1.1507 0.35606,1.62677 0.39344,0.65613 1.09043,1.09571 1.74672,1.48887 1.20233,0.72027 3.75288,1.23636 3.55775,2.36062 -0.19202,1.10637 0.11557,3.51342 -0.22308,5.31663 -0.15722,0.83715 -0.47443,1.74719 -1.12875,2.29255 -0.56512,0.47101 -1.40663,0.4364 -2.12335,0.60233 -0.0367,0.008 -0.0739,0.0147 -0.11096,0.0214 -0.33489,0.13681 -2.14565,0.90902 -2.4574,1.82812 -0.29935,0.88257 0.79209,2.68135 0.79209,2.68135 -2.9821,0.3576 -4.41164,1.1892 -5.9207,2.2966 -0.26526,0.19467 -0.23663,0.73199 -0.0281,0.9865 0.5712,0.69713 1.39399,1.43451 2.23142,2.00427 2.19536,1.49369 5.97918,3.83608 8.56439,3.24804 0.1079,-0.0247 0.19137,-0.0199 0.25582,0.004 0.10628,-0.0373 0.20516,-0.0827 0.29436,-0.13761 0.21594,-0.13296 -0.16234,-0.7614 -0.40851,-0.82222 -0.89755,-0.22175 -2.17487,-0.5012 -3.11246,-1.07109 -0.49119,-0.29857 -1.18891,-0.61734 -1.24898,-1.18901 -0.0227,-0.21601 0.21815,-0.47528 0.36824,-0.53772 0.74612,-0.31037 1.38399,-0.53133 2.11234,-0.57364 2.99792,-0.17414 5.97922,-0.30523 9.15687,-1.03864 0.66284,-0.14027 1.4047,-0.26042 1.98863,-0.6397 0.61872,-0.40187 1.27333,-1.11966 1.64619,-1.54391 0.29426,-0.33483 -0.12751,-0.65022 -0.40909,-0.99577 -0.3498,-0.42928 -0.85815,-0.59527 -1.40166,-0.75414 -1.29257,-0.37782 -2.62294,-1.01841 -3.70145,-1.53087 -0.30822,-0.14645 -0.71039,0.12852 -0.95636,0.36504 -0.99923,0.96087 -1.32884,3.12255 -1.63402,3.8243 -0.25283,0.58136 -0.60728,0.86452 -1.01604,0.75761 -1.09701,-0.2869 -1.98297,-0.58148 -3.61629,-1.34111 -0.33713,-0.1568 -0.69413,-0.0347 -0.68402,-1.03951 0.0306,-3.04722 2.52194,-4.82384 4.80471,-7.5469 -0.76263,-0.37148 -1.5191,-4.33491 -0.8964,-8.12168 0.28397,-1.72687 0.48769,-4.68799 0.37171,-5.1202 -0.0163,-0.061 -0.0635,-0.0843 -0.12487,-0.0808 z" />
      <path
         style="opacity:0.529368;fill:#e8dd56;fill-opacity:1;stroke:none;stroke-width:0.148336px;stroke-linecap:butt;stroke-linejoin:miter;stroke-opacity:1"
         d="m 82.12018,67.51265 c -0.0635,1.5765 14.86969,8.04329 24.84847,10.24176 V 74.9138 c 0,-0.3658 -0.36174,-1.16849 -0.98806,-1.32616 -8.90387,-1.78516 -23.8156,-7.18849 -23.86041,-6.07499 z"
         id="path5348" />
      <path
         style="fill:#1a1a1a;fill-opacity:1;stroke:none;stroke-width:0.197781;stroke-opacity:1"
         d="m 101.86899,81.72315 c -0.87396,-0.33491 -1.87898,-1.44439 -1.72156,-1.90048 0.0434,-0.1259 0.67667,-0.20765 1.56689,-0.20229 1.27183,0.008 1.66601,0.0989 2.65108,0.61376 1.32218,0.69105 1.58177,1.24202 0.7613,1.61586 -0.72388,0.32981 -2.21785,0.27164 -3.25771,-0.12685 z"
         id="path5350" />
      <path
         style="fill:#1a1a1a;fill-opacity:1;stroke:none;stroke-width:0.197781;stroke-opacity:1"
         d="m 79.35449,83.73007 c -0.88834,-0.43779 -1.46085,-1.5949 -1.38341,-2.79604 l 0.0598,-0.92709 0.9418,0.0126 c 1.67585,0.0224 2.51155,0.987 2.51646,2.9047 l 0.003,1.13724 -0.74168,-0.005 c -0.40793,-0.002 -1.03607,-0.14958 -1.39588,-0.32689 z"
         id="path5352" />
      <path
         style="fill:#1a1a1a;fill-opacity:1;stroke:none;stroke-width:0.197781;stroke-opacity:1"
         d="m 100.30495,84.43106 c -1.32039,-0.38805 -2.19925,-1.32221 -2.19925,-2.33759 0,-0.97879 2.8276,-0.17086 3.55942,1.01704 0.7745,1.2572 0.22838,1.78742 -1.36017,1.32056 z"
         id="path5354" />
      <path
         style="fill:#1a1a1a;fill-opacity:1;stroke:none;stroke-width:0.197781;stroke-opacity:1"
         d="m 93.57563,84.14619 c -0.66923,-0.56311 -1.0901,-1.76446 -0.89311,-2.54931 0.10622,-0.42322 0.23966,-0.50186 0.85163,-0.50186 1.00102,0 1.41689,0.35232 2.09807,1.77751 0.57156,1.19584 0.57681,1.23407 0.20659,1.50479 -0.60252,0.44056 -1.58405,0.34033 -2.26318,-0.23113 z"
         id="path5356" />
      <path
         style="fill:#1a1a1a;fill-opacity:1;stroke:none;stroke-width:0.197781;stroke-opacity:1"
         d="m 86.2744,83.94744 c -1.00123,-0.85702 -1.06596,-1.42927 -0.24025,-2.12407 1.39423,-1.17315 3.52556,-0.68524 3.87069,0.88611 0.10859,0.49444 0.0204,0.68946 -0.57234,1.26507 -0.98298,0.95467 -1.92083,0.94635 -3.0581,-0.0271 z"
         id="path5358" />
      <path
         style="fill:#1a1a1a;fill-opacity:1;stroke:none;stroke-width:0.197781;stroke-opacity:1"
         d="m 105.72392,88.70463 c -0.8568,-0.18193 -1.02426,-0.90556 -1.02426,-2.11633 0,0 -0.0226,-0.48801 0.0205,-0.81573 0.0386,-0.29414 0.89001,0 0.89001,0 0.64196,0 0.86127,0.0812 0.89001,0.28424 l 0.12082,0.85294 c -0.01,0.29293 0.19159,1.20958 -0.0378,1.97734 -0.0838,0.28051 -0.85919,-0.18246 -0.85919,-0.18246 z"
         id="path5360" />
      <path
         style="fill:#1a1a1a;fill-opacity:1;stroke:none;stroke-width:0.197781;stroke-opacity:1"
         d="m 82.34144,89.86715 c -0.40504,-0.16449 -1.66689,-2.06128 -1.60053,-2.40587 0.0345,-0.17916 0.29413,-0.40713 0.57694,-0.50659 1.45586,-0.512 3.3024,1.20142 2.84565,2.6405 -0.0985,0.31043 -0.29005,0.3965 -0.8553,0.38439 -0.4006,-0.009 -0.83564,-0.0592 -0.96676,-0.11243 z"
         id="path5362" />
      <path
         style="fill:#1a1a1a;fill-opacity:1;stroke:none;stroke-width:0.197781;stroke-opacity:1"
         d="m 56.59465,91.25492 c -1.43749,-1.00685 -1.31088,-5.01367 0.18369,-5.81353 0.22181,-0.11871 0.73328,-0.18844 1.1366,-0.15496 0.70502,0.0586 0.73846,0.0952 0.86698,0.95091 0.0735,0.4895 0.14027,1.57344 0.14834,2.40875 0.0141,1.46136 -0.0105,1.5454 -0.65149,2.22504 -0.74472,0.78963 -1.01633,0.85153 -1.68412,0.38379 z"
         id="path5364" />
      <path
         style="fill:#1a1a1a;fill-opacity:1;stroke:none;stroke-width:0.197781;stroke-opacity:1"
         d="m 87.35414,92.25506 c -0.54466,-0.30576 -0.56258,-0.3632 -0.47939,-1.53597 0.0564,-0.79522 0.24253,-1.47594 0.5359,-1.96003 0.43889,-0.72422 0.47732,-0.74169 1.63185,-0.74169 1.04311,0 1.25045,0.0681 1.76049,0.57814 0.66154,0.66153 0.73351,1.30914 0.25708,2.31315 -0.63574,1.33972 -2.5069,2.01953 -3.70593,1.3464 z"
         id="path5366" />
      <path
         style="fill:#1a1a1a;fill-opacity:1;stroke:none;stroke-width:0.197781;stroke-opacity:1"
         d="m 59.85075,92.65783 c -0.19693,-0.78463 0.23541,-2.01785 1.00675,-2.87163 0.77108,-0.8535 1.15862,-0.9406 2.07547,-0.46648 0.56781,0.29363 0.59792,0.36472 0.47639,1.12473 -0.2907,1.81791 -1.16451,2.71525 -2.64403,2.71525 -0.67935,0 -0.80607,-0.0695 -0.91458,-0.50187 z"
         id="path5368" />
      <path
         id="path5370"
         style="fill:#1a1a1a;fill-opacity:1;stroke:none;stroke-width:0.197781;stroke-opacity:1"
         d="m 105.94461,90.06341 c -0.16659,-0.004 -0.36977,0.0468 -0.63911,0.13574 -1.10558,0.36486 -1.4629,1.14487 -1.46347,3.19699 -7.2e-4,1.67516 0.0135,1.72739 0.54332,2.00643 0.96104,0.50621 1.9686,0.33098 2.56495,-0.44575 0.023,-0.0299 0.0439,-0.0669 0.0636,-0.10994 v -3.1871 c -0.0526,-0.23264 -0.11573,-0.43961 -0.18947,-0.602 -0.32415,-0.71382 -0.51335,-0.98614 -0.87985,-0.99437 z" />
      <path
         style="fill:#1a1a1a;fill-opacity:1;stroke:none;stroke-width:0.197781;stroke-opacity:1"
         d="m 92.3041,96.19234 c -0.23761,-0.23761 -0.11712,-1.53173 0.22502,-2.41692 0.38309,-0.99111 1.3749,-1.66986 2.26373,-1.5492 0.53594,0.0728 0.5439,0.058 0.5439,-1.00581 0,-1.87533 0.92746,-2.80747 2.79338,-2.80747 0.63773,0 0.80392,0.0916 1.05829,0.58353 0.99089,1.91618 -0.56983,3.94329 -2.86616,3.72265 l -0.93664,-0.09 -0.10444,1.00697 c -0.1374,1.32487 -0.49224,2.06107 -1.15979,2.40627 -0.5678,0.29361 -1.58934,0.37793 -1.81729,0.14998 z"
         id="path5372" />
      <path
         style="fill:#1a1a1a;fill-opacity:1;stroke:none;stroke-width:0.197781;stroke-opacity:1"
         d="m 87.10475,96.63335 c -1.22413,-0.53276 -1.75545,-2.15545 -0.78548,-2.3989 0.58666,-0.14724 1.15478,0.13944 2.24135,1.13104 0.83694,0.7638 0.83775,0.76588 0.445,1.15861 -0.45544,0.45545 -1.02962,0.48845 -1.90087,0.10925 z"
         id="path5374" />
      <path
         style="fill:#1a1a1a;fill-opacity:1;stroke:none;stroke-width:0.197781;stroke-opacity:1"
         d="m 97.321,100.1887 c -0.78869,-0.95032 -0.28087,-3.002 0.87931,-3.55254 1.29024,-0.61226 2.04525,-0.26562 2.21743,1.01806 0.14685,1.09475 -0.045,1.76861 -0.66778,2.3458 -0.60214,0.55805 -2.03032,0.66899 -2.42896,0.18868 z"
         id="path5376" />
      <path
         style="fill:#1a1a1a;fill-opacity:1;stroke:none;stroke-width:0.197781;stroke-opacity:1"
         d="m 60.04744,100.57369 c -0.95892,-1.03467 -0.75941,-2.66131 0.47818,-3.89891 0.7719,-0.7719 1.26434,-0.90737 1.79066,-0.49262 1.46003,1.15053 1.23047,3.64394 -0.41683,4.5274 -0.90416,0.4849 -1.30389,0.45557 -1.85201,-0.13587 z"
         id="path5378" />
      <path
         id="path5380"
         style="fill:#1a1a1a;fill-opacity:1;stroke:none;stroke-width:0.226252;stroke-opacity:1"
         d="m 105.31787,97.59494 c -0.33736,0 -1.32372,1.7154 -1.51507,2.63494 -0.0918,0.44089 -0.0187,1.0225 0.1923,1.52745 0.38761,0.92767 0.78253,0.7991 2.07995,0.76107 0.2495,-0.007 0.37995,-0.18939 0.56948,-0.24603 0,0 0.30891,-0.12688 0.32027,-0.28845 0.0181,-0.25845 0.0347,-0.51844 0.0491,-0.77345 v -2.338 c -0.18287,-0.33637 -0.77733,-0.65538 -0.77733,-0.65538 -0.36183,-0.3422 -0.77524,-0.62215 -0.91873,-0.62215 z" />
      <path
         style="fill:#1a1a1a;fill-opacity:1;stroke:none;stroke-width:0.197781;stroke-opacity:1"
         d="m 92.87369,104.97714 c -0.0425,-0.13597 -0.1328,-0.58126 -0.20065,-0.98953 -0.0679,-0.40827 -0.39531,-1.38132 -0.72766,-2.16233 -0.67712,-1.5912 -0.67024,-2.34337 0.0304,-3.32736 0.49892,-0.70068 1.30207,-0.78423 2.35526,-0.24504 1.3229,0.67727 1.79438,2.78054 1.08801,4.85361 -0.48269,1.41662 -2.27549,2.73418 -2.54539,1.87065 z"
         id="path5382" />
      <path
         style="fill:#1a1a1a;fill-opacity:1;stroke:none;stroke-width:0.220987;stroke-opacity:1"
         d="m 104.62557,104.84941 c -0.0103,-1.22857 -0.79439,-1.7662 -2.06436,-1.41555 -1.74613,0.48214 -2.2976,2.64628 -1.00398,3.9399 0.2117,0.2117 0.2954,0.49935 0.42971,0.48727 0.37699,-0.034 0.75301,-0.0706 1.0364,-0.3752 1.01193,-0.87692 1.60883,-1.85015 1.60223,-2.63642 z"
         id="path5384" />
      <path
         style="fill:#1a1a1a;fill-opacity:1;stroke:none;stroke-width:0.197781;stroke-opacity:1"
         d="m 57.65177,108.26314 c -0.85806,-0.92587 -1.13709,-2.76377 -0.58243,-3.83637 0.35978,-0.69574 1.3064,-1.2271 2.03558,-1.14264 1.13424,0.13139 1.4302,2.17691 0.62609,4.32707 -0.39834,1.06516 -0.49206,1.17324 -1.01743,1.17324 -0.37115,0 -0.75194,-0.18696 -1.06181,-0.5213 z"
         id="path5386" />
      <path
         id="path5388"
         style="fill:#f57a06;fill-opacity:1;stroke:none;stroke-width:0.148336px;stroke-linecap:butt;stroke-linejoin:miter;stroke-opacity:1"
         d="m 69.26492,67.51329 c -0.0763,0.004 -0.15259,0.009 -0.22888,0.0136 -0.20147,0.0117 -0.39937,0.0168 -0.58755,0.0768 -0.22447,0.0716 -0.44643,0.16209 -0.71618,0.19382 -0.28588,0.0336 -0.52668,0.18577 -0.80861,0.30305 -0.15009,0.0624 -0.39093,0.3217 -0.36823,0.53771 0.0601,0.57167 0.75779,0.89045 1.24898,1.18901 0.61211,0.37206 1.35564,0.88939 2.0654,0.8031 0.24134,-0.0293 0.43708,-0.32846 0.4876,-0.54235 0.0626,-0.26495 -0.11582,-0.55521 -0.29261,-0.76225 -0.36397,-0.42624 -0.51924,-1.04954 -0.73241,-1.67719 -0.0155,-0.0456 -0.0375,-0.0945 -0.0675,-0.1353 z" />
      <path
         style="fill:#1a1a1a;fill-opacity:1;stroke:none;stroke-width:0.220987;stroke-opacity:1"
         d="m 77.45627,84.87143 c -0.0103,-1.22857 -0.79439,-1.7662 -2.06436,-1.41554 -1.74612,0.48213 -2.29759,2.64627 -1.00398,3.93989 0.21171,0.21171 0.29541,0.49935 0.42971,0.48727 0.377,-0.034 0.75302,-0.0706 1.03641,-0.3752 1.01193,-0.87692 1.60882,-1.85015 1.60222,-2.63642 z"
         id="path5390" />
      <path
         style="fill:#1a1a1a;fill-opacity:1;stroke:none;stroke-width:0.197781;stroke-opacity:1"
         d="m 77.17773,99.12729 c 1.43748,1.00686 1.31088,5.01367 -0.18369,5.81354 -0.22181,0.1187 -0.73328,0.18843 -1.1366,0.15495 -0.70503,-0.0585 -0.73846,-0.0952 -0.86698,-0.95091 -0.0735,-0.4895 -0.14028,-1.57344 -0.14834,-2.40874 -0.0141,-1.46136 0.0105,-1.5454 0.65149,-2.22504 0.74472,-0.78964 1.01633,-0.85153 1.68412,-0.3838 z"
         id="path5392" />
      <path
         style="fill:#1a1a1a;fill-opacity:1;stroke:none;stroke-width:0.197781;stroke-opacity:1"
         d="m 70.24137,100.30057 c 0.19692,0.78463 -0.23542,2.01785 -1.00676,2.87162 -0.77109,0.8535 -1.15862,0.9406 -2.07547,0.46649 -0.56781,-0.29363 -0.59792,-0.36472 -0.47639,-1.12473 0.2907,-1.81791 1.1645,-2.71525 2.64403,-2.71525 0.67935,0 0.80607,0.0695 0.91459,0.50187 z"
         id="path5394" />
      <path
         style="fill:#1a1a1a;fill-opacity:1;stroke:none;stroke-width:0.197781;stroke-opacity:1"
         d="m 68.21924,93.28448 c 1.23579,-0.68037 2.76597,-0.0936 3.66771,1.40646 0.56242,0.9356 0.57484,1.44619 0.0452,1.85664 -1.46935,1.13861 -3.83332,0.31314 -4.29238,-1.49886 -0.25197,-0.99455 -0.12688,-1.37534 0.57951,-1.76424 z"
         id="path5396" />
      <path
         style="fill:#1a1a1a;fill-opacity:1;stroke:none;stroke-width:0.197781;stroke-opacity:1"
         d="m 67.68707,84.44589 c 1.24211,0.22508 2.56889,1.52715 2.76947,2.7179 0.1301,0.77239 -0.30776,1.76573 -0.94155,2.13607 -0.98587,0.57603 -2.45086,-0.88188 -3.09905,-3.08409 -0.3211,-1.09092 -0.31105,-1.23363 0.10904,-1.54911 0.29678,-0.22287 0.71354,-0.30205 1.16209,-0.22077 z"
         id="path5398" />
      <path
         style="fill:#1a1a1a;fill-opacity:1;stroke:none;stroke-width:0.197781;stroke-opacity:1"
         d="m 78.11852,95.18699 c -0.66922,-0.56312 -1.0901,-1.76446 -0.89311,-2.54931 0.10621,-0.42322 0.23967,-0.50187 0.85163,-0.50187 1.00102,0 1.41689,0.35232 2.09807,1.77751 0.57156,1.19585 0.57681,1.23408 0.20659,1.50479 -0.60252,0.44057 -1.58405,0.34033 -2.26318,-0.23112 z"
         id="path5400" />
      <path
         style="fill:#1a1a1a;fill-opacity:1;stroke:none;stroke-width:0.197781;stroke-opacity:1"
         d="m 82.59995,102.39685 c -0.78869,-0.95031 -0.28087,-3.002 0.87931,-3.55254 1.29023,-0.61226 2.04525,-0.26562 2.21743,1.01806 0.14684,1.09476 -0.045,1.76861 -0.66778,2.3458 -0.60215,0.55805 -2.03033,0.66899 -2.42896,0.18868 z"
         id="path5402" />
    </g>
  </g>
</svg>
